<svg viewBox="0 0 336.57 212.9" xmlns="http://www.w3.org/2000/svg" data-name="Layer 2" id="Layer_2">
  <defs>
    <style>
      .cls-1 {
        fill: #235a49;
      }
    </style>
  </defs>
  <g data-name="Layer 1" id="Layer_1-2">
    <g>
      <path d="M40.04,3.98c0-2.19-1.78-3.98-3.98-3.98H3.98C1.73,0-.04,1.79,0,3.98v9.92h40.04V3.98Z" class="cls-1"></path>
      <path d="M113.29,80.36c-3.89,0-7.05,3.15-7.05,7.04v87.07c0,3.89,3.16,7.05,7.05,7.05s7.04-3.16,7.04-7.05v-87.07c0-3.89-3.16-7.04-7.04-7.04Z" class="cls-1"></path>
      <path d="M331.33,55.27v-19.9c0-1.59-1.16-2.87-2.59-2.87h-148.42c-1.42,0-2.58,1.29-2.58,2.87v19.89c0,1.59,1.16,2.86,2.58,2.86v.02h148.42c1.43,0,2.59-1.29,2.59-2.87Z" class="cls-1"></path>
      <path d="M36.74,157.66c0,8.23,6.67,14.9,14.9,14.91,8.23,0,14.9-6.68,14.91-14.91,0-5.81-8.01-23.73-14.91-37.57-6.91,13.84-14.9,31.76-14.9,37.57Z" class="cls-1"></path>
      <path d="M138.42,60.46L49.1,30.98c-3.88-1.27-6.81-4.24-8.18-7.9H0v183.21c0,2.19,1.79,3.98,3.98,3.98h133.15c2.19,0,3.98-1.79,3.98-3.98h0s.05-.01.05-.01V64.25c0-1.73-1.11-3.24-2.75-3.79ZM51.7,179.76c-12.15,0-22.04-9.9-22.05-22.05,0-8.43,10.56-31.41,19.64-48.61l.03-.04c.22-.34.5-.62.84-.84.46-.3,1-.46,1.54-.46.94,0,1.82.46,2.35,1.24,9.09,17.21,19.69,40.27,19.69,48.71,0,12.15-9.89,22.04-22.04,22.05ZM127.47,174.47c0,7.83-6.36,14.19-14.18,14.19s-14.19-6.36-14.19-14.19v-87.07c0-7.82,6.37-14.19,14.19-14.19s14.18,6.37,14.18,14.19v87.07Z" class="cls-1"></path>
      <path d="M283.33,134c-5.89,0-11.76-.57-17.52-1.75-7.81-1.6-14.29-4.04-20.57-6.41-9.65-3.64-18.76-7.07-32.27-7.46-12.61-.35-25.38,2.11-38.07,7.29h.02c-.07.34-.15.67-.21,1.01l.19.99-.32-.4c-1.36,6.57-2.04,13.26-2.06,19.96,0,24.06,8.42,46.75,23.7,63.87,1.01,1.15,2.5,1.8,4.06,1.8h108.52c1.56,0,3.04-.65,4.06-1.8,15.29-17.14,23.71-39.81,23.71-63.87-.02-8.6-1.16-17.16-3.38-25.47-17.36,8.11-34.07,12.24-49.86,12.24Z" class="cls-1"></path>
      <path d="M213.15,111.89c14.39.42,24.35,4.17,33.99,7.81,6.08,2.3,12.35,4.65,19.75,6.17,19.76,4.04,41.45.58,64.49-10.28-3.09-9.21-7.47-17.88-13.12-25.6h-127.43c-6.16,8.5-10.85,17.96-13.9,28,12.07-4.41,24.24-6.48,36.22-6.1Z" class="cls-1"></path>
      <rect height="18.9" width="124.35" y="64.61" x="192.36" class="cls-1"></rect>
    </g>
  </g>
</svg>