<svg viewBox="0 0 156.2 221.32" xmlns="http://www.w3.org/2000/svg" data-name="Layer 2" id="Layer_2">
  <defs>
    <style>
      .cls-1 {
        fill: #235a49;
      }
    </style>
  </defs>
  <g data-name="Layer 1" id="Layer_1-2">
    <g>
      <path d="M46.39,115.83l-.05.31c6.49,7.98,14.13,15.01,22.73,20.89-.45-1.51-.85-3.02-1.21-4.53-6.74-27.4-3.19-55.6,8.66-79.85h0c.57-1.17,1.15-2.3,1.75-3.44C69.47,30.22,55.47,14.32,37.66,3.1l-4.92-3.1-2.27,5.36c-10,23.63-11.24,50.18-3.5,74.77,4.15,13.17,10.64,25.22,19.09,35.67.11,0,.22.02.33.03Z" class="cls-1"></path>
      <path d="M118.65,131.78c-1.44,0-2.88.07-4.31.22-.95.08-1.89.2-2.84.35-10.58,1.68-20.89,7.01-29.07,15.2-9.17,9.17-14.72,20.83-15.63,32.85-.89,11.83,2.84,22.57,10.53,30.25,6.87,6.88,16.42,10.67,26.88,10.67,13,0,26.2-5.75,36.22-15.77,9.18-9.17,14.73-20.84,15.64-32.85.89-11.83-2.85-22.58-10.53-30.26-6.88-6.88-16.43-10.66-26.89-10.66Z" class="cls-1"></path>
      <path d="M57.49,179.69c.84-11.13,5.01-21.97,11.94-31.31-9.38-5.67-17.82-12.53-25.14-20.38-.98-1.03-1.93-2.08-2.86-3.15-.14-.01-.27-.01-.41-.01-22.62,0-41.02,21.64-41.02,48.23s18.4,48.24,41.02,48.24c9.06,0,17.76-3.46,24.82-9.83-.58-.82-1.14-1.67-1.66-2.53-5.16-8.42-7.5-18.5-6.69-29.26Z" class="cls-1"></path>
      <path d="M79.1,137.89c.81-.71,1.65-1.4,2.49-2.07,7.03-5.54,15.05-9.5,23.38-11.59,1.73-.44,3.48-.8,5.23-1.07,0,0,0,.02,0,0,31.19-28.4,43.01-72.12,30.09-112.69l-1.76-5.53-5.18,2.62c-47.37,23.94-70.4,80.26-54.26,130.33Z" class="cls-1"></path>
    </g>
  </g>
</svg>