<svg xmlns="http://www.w3.org/2000/svg" fill="none" viewBox="0 0 402 450" height="450" width="402">
<rect fill="#F5EDD0" height="450" width="402"></rect>
<mask height="450" width="402" y="0" x="0" maskUnits="userSpaceOnUse" style="mask-type:alpha" id="mask0_1852_7617">
<rect fill="#F5EDD0" height="450" width="402"></rect>
</mask>
<g mask="url(#mask0_1852_7617)">
<g clip-path="url(#clip0_1852_7617)">
<path fill="#EFE4B8" d="M-1.76713 227.938C-8.46258 223.607 -9.37614 217.449 -4.42367 211.327C2.22369 214.382 3.38968 221.238 -1.76713 227.938Z"></path>
<path fill="#EFE4B8" d="M3.9189 215.645C-2.77654 211.315 -3.69011 205.157 1.26236 199.034C7.90973 202.089 9.07572 208.945 3.9189 215.645Z"></path>
<path fill="#EFE4B8" d="M10.2658 202.318C2.57267 200.225 -0.168024 194.62 2.71691 187.294C9.97732 188.197 13.1628 194.367 10.2658 202.318Z"></path>
<path fill="#EFE4B8" d="M15.8432 188.894C7.88562 189.291 3.54619 184.829 4.00297 176.962C11.1792 175.555 16.1317 180.438 15.8432 188.894Z"></path>
<path fill="#EFE4B8" d="M36.1098 222.381C28.1522 222.778 23.8128 218.315 24.2696 210.449C31.4458 209.042 36.3983 213.925 36.1098 222.381Z"></path>
<path fill="#EFE4B8" d="M31.2057 227.673C24.0054 231.089 18.2836 228.623 15.6992 221.19C21.7936 217.136 28.2246 219.759 31.2057 227.673Z"></path>
<path fill="#EFE4B8" d="M23.9333 232.701C18.8486 238.847 12.622 239.04 7.14062 233.387C10.9511 227.144 17.887 226.783 23.9333 232.701Z"></path>
<path fill="#EFE4B8" d="M20.8202 241.794C17.0698 248.831 11.0114 250.262 4.5083 245.824C6.99656 238.944 13.7281 237.199 20.8202 241.794Z"></path>
<path fill="#EFE4B8" d="M18.764 252.199C15.0136 259.235 8.95527 260.667 2.45215 256.228C4.9404 249.348 11.6719 247.604 18.764 252.199Z"></path>
<path fill="#EFE4B8" d="M39.3314 234.156C35.581 241.193 29.5226 242.624 23.0195 238.186C25.5078 231.306 32.2393 229.562 39.3314 234.156Z"></path>
<path fill="#EFE4B8" d="M35.2086 243.466C33.7301 251.308 28.3689 254.472 20.832 252.187C21.1566 244.873 27.0587 241.217 35.2086 243.466Z"></path>
<path fill="#EFE4B8" d="M20.1223 268.004C18.4514 261.16 21.6128 256.649 28.5006 255.747C30.9047 261.749 27.4909 266.849 20.1223 268.004Z"></path>
<path fill="#EFE4B8" d="M18.8004 261.412C16.3482 269.002 10.6265 271.48 3.4502 268.256C4.68831 261.039 10.9991 258.152 18.8004 261.412Z"></path>
<path fill="#EFE4B8" d="M19.4134 272.165C18.9205 280.128 14.0041 283.953 6.23883 282.618C5.6378 275.329 11.0471 270.95 19.4134 272.165Z"></path>
<path fill="#EFE4B8" d="M23.3801 283.087C22.8873 291.05 17.9709 294.875 10.2056 293.54C9.60459 286.251 15.0138 281.872 23.3801 283.087Z"></path>
<path fill="#EFE4B8" d="M29.5951 301.983C22.8035 297.798 21.7697 291.651 26.59 285.433C33.2974 288.343 34.6077 295.175 29.5951 301.983Z"></path>
<path fill="#EFE4B8" d="M38.7665 295.296C31.9749 291.11 30.9411 284.964 35.7613 278.745C42.4688 281.656 43.7791 288.488 38.7665 295.296Z"></path>
<path fill="#EFE4B8" d="M29.9911 283.893C23.1995 279.707 22.1657 273.561 26.986 267.342C33.6934 270.253 35.0037 277.085 29.9911 283.893Z"></path>
<path fill="#EFE4B8" d="M60.3792 303.691C55.5469 310.03 49.3323 310.463 43.6226 305.038C47.1806 298.651 54.1045 298.026 60.3792 303.691Z"></path>
<path fill="#EFE4B8" d="M51.8686 314.336C45.7261 319.424 39.5715 318.438 35.2441 311.858C40.1605 306.433 47.0363 307.396 51.8686 314.336Z"></path>
<path fill="#EFE4B8" d="M68.3729 295.055C63.5406 301.394 57.326 301.827 51.6162 296.402C55.1743 290.015 62.0981 289.39 68.3729 295.055Z"></path>
<path fill="#EFE4B8" d="M73.6136 283.268C70.6565 290.677 64.7784 292.758 57.8306 289.053C59.5495 281.944 66.0526 279.479 73.6136 283.268Z"></path>
<path fill="#EFE4B8" d="M76.03 272.129C73.073 279.539 67.1949 281.62 60.2471 277.915C61.966 270.806 68.4691 268.34 76.03 272.129Z"></path>
<path fill="#EFE4B8" d="M78.5305 261.412C75.5735 268.821 69.6954 270.902 62.7476 267.198C64.4665 260.089 70.9696 257.623 78.5305 261.412Z"></path>
<path fill="#EFE4B8" d="M79.6966 250.479C76.7395 257.888 70.8615 259.969 63.9136 256.265C65.6325 249.156 72.1356 246.69 79.6966 250.479Z"></path>
<path fill="#EFE4B8" d="M89.4929 239.822C86.5359 247.231 80.6578 249.312 73.71 245.607C75.4289 238.499 81.932 236.033 89.4929 239.822Z"></path>
<path fill="#EFE4B8" d="M71.5703 231.859C75.7535 238.655 73.9263 244.609 66.8222 247.989C62.1342 242.372 64.0334 235.684 71.5703 231.859Z"></path>
<path fill="#EFE4B8" d="M75.3091 213.203C79.4922 219.999 77.6651 225.953 70.561 229.333C65.8729 223.716 67.7722 217.028 75.3091 213.203Z"></path>
<path fill="#EFE4B8" d="M48.8518 285.457C41.0865 283.629 38.1655 278.132 40.786 270.698C48.0704 271.348 51.4722 277.41 48.8518 285.457Z"></path>
<path fill="#EFE4B8" d="M41.2546 268.268C33.4893 266.44 30.5683 260.943 33.1888 253.51C40.4733 254.159 43.8751 260.221 41.2546 268.268Z"></path>
<path fill="#EFE4B8" d="M53.4196 274.391C45.6544 272.563 42.7334 267.066 45.3539 259.632C52.6383 260.282 56.0401 266.344 53.4196 274.391Z"></path>
<path fill="#EFE4B8" d="M56.4729 261.857C48.7076 260.029 45.7866 254.532 48.4071 247.099C55.6915 247.748 59.0934 253.81 56.4729 261.857Z"></path>
<path fill="#EFE4B8" d="M60.1149 253.077C53.4916 248.638 52.6621 242.468 57.7228 236.43C64.3221 239.593 65.3799 246.461 60.1149 253.077Z"></path>
<path fill="#EFE4B8" d="M50.0177 244.044C43.3944 239.605 42.565 233.435 47.6256 227.396C54.2249 230.56 55.2827 237.428 50.0177 244.044Z"></path>
<path fill="#EFE4B8" d="M63.0836 237.561C56.4603 233.122 55.6309 226.952 60.6915 220.914C67.2908 224.077 68.3486 230.945 63.0836 237.561Z"></path>
<path fill="#EFE4B8" d="M44.0678 216.319C36.1102 216.715 31.7708 212.253 32.2276 204.387C39.4038 202.979 44.3563 207.863 44.0678 216.319Z"></path>
<path fill="#EFE4B8" d="M53.8766 209.029C46.2435 211.339 40.9545 208.055 39.5 200.321C46.1233 197.218 52.1096 200.766 53.8766 209.029Z"></path>
<path fill="#EFE4B8" d="M63.2286 202.739C55.5956 205.048 50.3065 201.764 48.8521 194.03C55.4754 190.927 61.4616 194.475 63.2286 202.739Z"></path>
<path fill="#EFE4B8" d="M74.7921 198.433C67.159 200.742 61.87 197.458 60.4155 189.724C67.0389 186.621 73.0251 190.169 74.7921 198.433Z"></path>
<path fill="#EFE4B8" d="M83.4709 185.55C77.6169 190.963 71.4263 190.326 66.7383 183.999C71.3422 178.309 78.266 178.887 83.4709 185.55Z"></path>
<path fill="#EFE4B8" d="M16.6245 175.182C8.85921 176.999 3.79856 173.378 2.83691 165.56C9.65257 162.902 15.3864 166.823 16.6245 175.182Z"></path>
<path fill="#EFE4B8" d="M13.2469 162.276C5.56581 164.405 0.348886 161.001 -0.925293 153.23C5.77015 150.284 11.6602 153.964 13.2469 162.276Z"></path>
<path fill="#EFE4B8" d="M10.7829 146.146C5.81841 139.903 6.92431 133.769 13.5717 129.559C18.8968 134.575 17.8029 141.443 10.7829 146.146Z"></path>
<path fill="#EFE4B8" d="M4.25579 135.874C-1.9348 130.846 -2.1752 124.615 3.41435 119.07C9.68908 122.823 10.1098 129.763 4.25579 135.874Z"></path>
<path fill="#EFE4B8" d="M43.3828 188.894C37.1922 183.866 36.9517 177.636 42.5413 172.091C48.816 175.844 49.2368 182.784 43.3828 188.894Z"></path>
<path fill="#EFE4B8" d="M45.2094 171.562C39.0188 166.534 38.7784 160.303 44.368 154.758C50.6427 158.511 51.0634 165.451 45.2094 171.562Z"></path>
<path fill="#EFE4B8" d="M53.4916 185.009C47.301 179.982 47.0606 173.751 52.6502 168.206C58.9249 171.959 59.3456 178.899 53.4916 185.009Z"></path>
<path fill="#EFE4B8" d="M63.9858 182.772C57.7952 177.744 57.5548 171.514 63.1443 165.969C69.4191 169.722 69.8398 176.662 63.9858 182.772Z"></path>
<path fill="#EFE4B8" d="M18.2116 155.011C13.2471 148.769 14.353 142.634 21.0004 138.424C26.3255 143.44 25.2316 150.308 18.2116 155.011Z"></path>
<path fill="#EFE4B8" d="M21.7092 163.298C19.6056 155.6 23.0314 150.404 30.8087 149.153C33.7297 155.865 30.0274 161.747 21.7092 163.298Z"></path>
<path fill="#EFE4B8" d="M23.7407 172.283C23.9331 164.309 28.7172 160.315 36.5186 161.35C37.3841 168.615 32.1431 173.185 23.7407 172.283Z"></path>
<path fill="#EFE4B8" d="M23.8013 183.265C23.9936 175.291 28.7778 171.297 36.5791 172.332C37.4446 179.597 32.2036 184.167 23.8013 183.265Z"></path>
<path fill="#EFE4B8" d="M22.6108 195.654C22.8032 187.679 27.5874 183.686 35.3887 184.72C36.2542 191.985 31.0132 196.556 22.6108 195.654Z"></path>
<path fill="#EFE4B8" d="M5.28893 144.883C-2.3922 147.012 -7.60912 143.608 -8.8833 135.838C-2.18785 132.891 3.70222 136.572 5.28893 144.883Z"></path>
<path fill="#EFE4B8" d="M-39.127 300.011C-26.3612 298.519 -14.7974 302.092 -4.00292 308.659C0.829338 311.594 3.76235 315.744 3.69022 321.625C3.66618 323.153 3.58204 324.681 3.43779 326.208C2.4521 336.36 -0.528992 346.079 -2.90906 355.93C-5.16892 365.3 -6.74361 374.742 -5.79398 384.401C-4.88042 393.795 -3.44999 412.727 -2.0556 422.061C1.05772 421.508 5.3731 416.384 12.6455 418.152C21.0479 417.129 26.2288 420.798 28.8012 419.896C28.6329 419.956 18.8722 388.779 18.1389 386.253C15.5786 377.484 12.7898 368.656 12.2609 359.478C11.756 350.746 15.6146 342.627 15.819 333.954C16.0113 325.787 18.6799 319.689 25.4594 314.866C34.8355 308.202 45.0169 301.755 52.0609 292.469C60.2229 281.728 59.7781 268.942 61.8336 256.168C61.9418 255.506 62.3265 254.725 61.6533 254.063C60.7157 254.532 60.8119 255.398 60.6316 256.096C59.2612 261.484 57.963 266.885 56.5807 272.274C53.9482 282.51 48.623 290.917 39.6197 296.691C33.8979 300.36 28.0799 303.908 22.262 307.432C19.7497 308.948 17.2855 308.479 15.3742 306.181C2.90889 291.158 -1.08193 265.009 1.82704 246.088C5.06057 225.075 21.4326 207.225 39.1629 196.809C46.6517 192.407 54.7896 189.267 62.8434 186.056C63.2761 185.875 64.0214 185.935 63.8531 184.841C55.7152 186.585 47.9619 189.279 40.437 192.707C32.8641 196.147 25.8321 200.514 19.2208 205.77C18.752 204.567 19.1607 203.773 19.341 203.003C21.2402 195.161 22.6587 187.27 22.6947 179.139C22.7428 167.809 19.4251 157.825 11.7079 149.418C10.4338 148.022 9.09947 146.663 7.23628 145.569C7.01991 146.808 7.65701 147.325 8.0657 147.914C9.88081 150.536 11.78 153.11 13.2586 155.961C18.4515 165.944 19.2088 176.469 17.2133 187.379C15.278 197.952 11.3593 207.779 6.13039 217.112C1.46642 225.424 -2.72875 233.952 -5.18095 243.238C-6.07047 246.618 -6.57532 250.07 -6.99604 254.135C-8.96741 248.217 -9.91704 242.745 -10.3257 237.212C-11.083 226.939 -9.56845 216.86 -7.46485 206.828C-4.97659 194.969 -4.8083 182.724 -6.41906 170.744C-7.90961 159.582 -12.0086 149.309 -14.2565 138.388C-16.9491 125.337 -16.1437 112.732 -10.0132 100.643C-6.49118 93.6791 -2.28399 87.1478 1.79098 80.5202C2.22372 79.8226 2.96899 79.161 2.65646 78.1266C1.70684 78.1868 1.41834 78.9084 0.961563 79.3896C-2.56046 83.1424 -5.80601 87.1117 -8.63084 91.4178C-8.99146 91.959 -9.23186 92.9093 -10.0132 92.801C-10.7465 92.7048 -10.8546 91.8027 -11.1071 91.1532C-11.8043 89.3369 -12.4654 87.5086 -13.2347 85.7284C-16.8529 77.3568 -23.7166 72.6778 -31.8545 69.5144C-31.9868 69.4663 -32.2031 69.6227 -32.3955 69.6828C-32.2031 70.5609 -31.4218 70.6932 -30.8689 71.03C-27.2627 73.2071 -24.0292 75.8533 -21.5289 79.2332C-15.2542 87.7251 -12.8861 96.8545 -17.3457 107.006C-17.8506 108.149 -18.2593 109.328 -18.68 110.507C-21.8054 119.371 -23.1156 128.417 -21.2644 137.762C-21.1803 138.171 -20.8918 138.713 -21.6491 139.037C-26.4693 133.565 -31.9267 128.801 -37.8408 124.495C-43.9833 120.033 -50.6787 116.545 -57.3622 113.044C-57.867 112.78 -58.6003 112.082 -59.009 112.696C-59.5018 113.441 -58.4921 113.622 -58.0353 113.935C-51.7005 118.253 -45.2935 122.463 -39.0428 126.889C-27.2627 135.224 -18.1391 145.424 -14.9296 160.123C-12.9582 169.168 -10.3858 178.057 -11.6961 187.463C-12.2851 191.637 -13.1866 195.714 -15.0618 200.068C-18.2232 189.363 -24.1013 180.98 -31.7944 173.811C-39.4035 166.714 -47.8539 160.857 -57.7228 156.394C-57.3862 158.042 -56.3765 158.403 -55.6432 158.968C-50.7509 162.745 -45.7383 166.353 -41.0743 170.419C-32.8763 177.576 -26.2169 185.779 -22.9834 196.4C-20.8317 203.484 -20.8317 210.822 -20.6754 218.099C-20.447 228.491 -19.1368 238.727 -16.9731 248.855C-14.4247 260.811 -9.64057 272.009 -5.27711 283.352C-3.26968 288.584 -1.25021 293.816 0.0840607 299.578C-0.384735 299.277 -0.637169 299.169 -0.829498 298.988C-5.01265 295.151 -9.86896 292.325 -14.8815 289.751C-22.166 285.998 -29.6788 282.738 -36.8551 278.733C-53.2992 269.555 -60.211 254.496 -62.9637 236.875C-63.7932 231.594 -63.0479 226.338 -61.389 221.238C-61.2208 220.733 -60.8481 220.047 -61.4732 219.735C-62.1223 219.422 -62.3747 220.18 -62.6873 220.613C-64.9471 223.74 -66.041 227.3 -66.4737 231.077C-67.3512 238.763 -65.8727 246.148 -63.3604 253.365C-60.2471 262.314 -55.9077 270.518 -49.104 277.326C-43.7188 282.702 -37.3239 286.551 -30.7847 290.244C-28.2965 291.651 -25.7481 292.95 -22.7309 294.562C-34.2106 294.273 -39.692 295.043 -49.7532 298.267C-59.2374 301.31 -72.0753 307.865 -73.3735 310.559C-70.0438 309.645 -67.0748 308.322 -64.0937 307.107C-56.0279 303.824 -47.8178 301.045 -39.127 300.035V300.011Z"></path>
<path fill="#EFE4B8" d="M360.04 466.987C361.338 462.284 362.444 457.749 359.03 453.262C355.808 449.028 353.488 444.265 354.727 438.035C356.782 440.765 358.237 443.411 359.607 446.13C360.989 448.884 360.977 451.951 362.011 454.898C362.72 450.183 363.442 445.468 364.151 440.753C364.355 440.777 364.547 440.813 364.752 440.837C364.163 444.746 363.562 448.668 362.973 452.577C365.858 448.259 369.175 444.626 373.839 441.499C373.346 445.203 372.289 448.042 370.017 450.315C368.514 451.819 367.06 453.443 365.317 454.622C361.783 457.015 361.614 460.527 361.795 464.352C364.547 458.026 369.404 453.695 375.402 449.197C374.548 453.154 373.791 456.221 371.832 458.843C368.827 462.861 364.571 465.603 361.182 469.236C360.28 470.198 359.631 469.597 359.09 468.634C357.431 465.724 355.772 462.825 354.017 459.974C351.349 455.644 350.495 450.977 351.277 445.324C356.289 452.072 359.847 458.783 360.052 466.975L360.04 466.987Z"></path>
<path fill="#EFE4B8" d="M364.283 441.511C362.444 439.165 362.877 436.88 365.377 435.328C367.348 437.217 366.927 439.779 364.283 441.511Z"></path>
<path fill="#EFE4B8" d="M401.415 424.346C411.512 426.15 423.977 432.14 431.863 438.708C426.261 437.529 421.08 435.388 415.947 432.994C410.851 430.529 405.934 427.858 401.415 424.346Z"></path>
<path fill="#EFE4B8" d="M380.895 425.501C405.273 428.688 430.913 440.211 449.689 456.089C451.636 457.845 453.559 459.637 455.434 461.465C452.489 459.589 449.737 457.472 446.756 455.656C426.453 442.413 404.023 432.682 380.895 425.513V425.501Z"></path>
<path fill="#EFE4B8" d="M384.97 434.209C404.215 435.617 425.299 443.88 441.178 454.741C446.792 458.434 451.925 462.848 456.673 467.539C445.698 459.986 434.447 453.118 422.33 447.621C410.334 442.052 397.784 437.553 384.97 434.197V434.209Z"></path>
<path fill="#EFE4B8" d="M383.949 439.634C405.886 441.571 428.99 452.348 445.831 466.385C448.343 468.442 450.651 470.739 452.983 473C451.612 472.122 450.278 471.208 448.944 470.294C429.11 456.642 407.172 446.129 383.961 439.622L383.949 439.634Z"></path>
<path fill="#EFE4B8" d="M385.655 447.02C407.412 449.654 434.795 460.178 448.859 477.571C446.527 475.707 444.195 473.915 441.767 472.243C424.662 460.635 405.141 453.563 385.655 447.02Z"></path>
<path fill="#EFE4B8" d="M131.096 456.63C131.733 457.833 132.034 458.976 132.094 460.094C132.334 459.012 132.563 457.917 132.767 456.823C132.875 456.245 132.911 455.644 132.899 455.054C132.851 453.804 132.791 452.565 132.406 451.35C131.709 449.137 130.94 446.959 129.714 444.662C128.031 449.197 129.185 453.058 131.096 456.642V456.63Z"></path>
<path fill="#EFE4B8" d="M123.884 460.082C124.521 461.285 124.821 462.428 124.882 463.546C125.122 462.464 125.35 461.369 125.555 460.275C125.663 459.697 125.699 459.096 125.687 458.507C125.639 457.256 125.579 456.017 125.194 454.802C124.497 452.589 123.728 450.412 122.501 448.114C120.819 452.649 121.973 456.51 123.884 460.094V460.082Z"></path>
<path fill="#EFE4B8" d="M136.349 453.647C136.734 454.946 136.794 456.137 136.625 457.231C137.082 456.221 137.515 455.187 137.936 454.164C138.164 453.611 138.32 453.046 138.416 452.456C138.621 451.217 138.813 450.002 138.681 448.727C138.44 446.418 138.128 444.133 137.395 441.631C134.834 445.732 135.183 449.75 136.337 453.647H136.349Z"></path>
<path fill="#EFE4B8" d="M141.362 446.755C141.747 448.054 141.807 449.245 141.639 450.339C142.095 449.329 142.528 448.295 142.949 447.272C143.177 446.719 143.333 446.154 143.43 445.564C143.634 444.325 143.826 443.11 143.694 441.835C143.454 439.526 143.141 437.241 142.408 434.739C139.847 438.84 140.196 442.858 141.35 446.755H141.362Z"></path>
<path fill="#EFE4B8" d="M143.237 461.478C143.622 462.777 143.682 463.967 143.514 465.062C143.97 464.052 144.403 463.017 144.824 461.995C145.052 461.442 145.208 460.876 145.305 460.287C145.509 459.048 145.701 457.833 145.569 456.558C145.329 454.249 145.016 451.963 144.283 449.461C141.722 453.563 142.071 457.58 143.225 461.478H143.237Z"></path>
<path fill="#EFE4B8" d="M154.308 452.673C154.308 453.743 154.103 454.645 153.743 455.439C154.308 454.766 154.861 454.092 155.401 453.406C155.69 453.046 155.93 452.637 156.135 452.216C156.555 451.326 156.964 450.448 157.132 449.461C157.457 447.669 157.697 445.877 157.697 443.832C154.873 446.382 154.284 449.485 154.308 452.673Z"></path>
<path fill="#EFE4B8" d="M99.4582 455.199C100.252 455.608 100.829 456.125 101.285 456.702C101.009 456.029 100.732 455.355 100.432 454.682C100.276 454.321 100.071 453.984 99.8428 453.671C99.35 453.01 98.8572 452.36 98.2081 451.855C97.006 450.917 95.7919 450.027 94.2773 449.233C95.0467 452.312 97.1022 453.972 99.4702 455.211L99.4582 455.199Z"></path>
<path fill="#EFE4B8" d="M112.813 458.434C113.582 459.18 114.075 459.962 114.399 460.78C114.315 459.914 114.219 459.036 114.111 458.17C114.051 457.713 113.943 457.256 113.774 456.811C113.438 455.884 113.089 454.982 112.512 454.164C111.454 452.673 110.349 451.242 108.882 449.822C108.726 453.623 110.529 456.221 112.825 458.434H112.813Z"></path>
<path fill="#EFE4B8" d="M146.783 449.846C146.783 450.917 146.579 451.819 146.218 452.613C146.783 451.939 147.336 451.265 147.877 450.58C148.166 450.219 148.406 449.81 148.61 449.389C149.031 448.499 149.44 447.621 149.608 446.635C149.933 444.842 150.173 443.05 150.173 441.005C147.348 443.555 146.759 446.659 146.783 449.846Z"></path>
<path fill="#EFE4B8" d="M125.711 446.743C126.276 447.645 126.576 448.523 126.696 449.401C126.817 448.535 126.937 447.669 127.033 446.803C127.081 446.334 127.081 445.877 127.033 445.408C126.925 444.434 126.805 443.471 126.432 442.533C125.759 440.837 125.026 439.177 123.944 437.445C122.886 441.102 124.016 444.061 125.723 446.755L125.711 446.743Z"></path>
<path fill="#EFE4B8" d="M131.998 438.636C132.563 439.538 132.863 440.416 132.984 441.294C133.104 440.428 133.224 439.562 133.32 438.696C133.368 438.227 133.368 437.77 133.32 437.301C133.212 436.327 133.092 435.364 132.719 434.426C132.046 432.73 131.313 431.07 130.231 429.338C129.173 432.995 130.303 435.954 132.01 438.648L131.998 438.636Z"></path>
<path fill="#EFE4B8" d="M117.549 450.52C118.438 451.554 118.967 452.601 119.28 453.683C119.28 452.565 119.256 451.458 119.22 450.339C119.196 449.75 119.111 449.161 118.955 448.583C118.643 447.368 118.306 446.178 117.669 445.083C116.503 443.074 115.277 441.126 113.594 439.141C112.933 443.94 114.904 447.453 117.549 450.532V450.52Z"></path>
<path fill="#EFE4B8" d="M111.707 449.329C112.597 450.364 113.125 451.41 113.438 452.493C113.438 451.374 113.414 450.268 113.378 449.149C113.354 448.56 113.27 447.97 113.113 447.393C112.801 446.178 112.464 444.987 111.827 443.893C110.661 441.884 109.435 439.935 107.752 437.951C107.091 442.75 109.062 446.262 111.707 449.341V449.329Z"></path>
<path fill="#EFE4B8" d="M106.214 456.835C107.103 457.869 107.632 458.916 107.945 459.998C107.945 458.88 107.921 457.773 107.885 456.654C107.861 456.065 107.777 455.476 107.62 454.898C107.308 453.683 106.971 452.493 106.334 451.398C105.168 449.389 103.942 447.441 102.259 445.456C101.598 450.255 103.569 453.768 106.214 456.847V456.835Z"></path>
<path fill="#EFE4B8" d="M-146.627 419.656C-129.942 413.148 -111.899 410.683 -94.0728 410.129C-78.386 409.708 -62.627 411.32 -47.2647 414.46C-10.001 422.278 24.9908 440.032 54.1887 464.256C39.4154 454.309 24.0772 445.336 8.07787 437.806C-11.7921 428.424 -33.0204 421.376 -54.6334 417.382C-80.6579 412.619 -107.56 412.042 -133.656 416.673C-137.864 417.467 -142.528 418.429 -146.639 419.656H-146.627Z"></path>
<path fill="#EFE4B8" d="M-146.627 426.127C-129.942 419.62 -111.899 417.154 -94.0728 416.601C-78.386 416.18 -62.627 417.791 -47.2647 420.931C-10.001 428.749 24.9908 446.503 54.1887 470.728C39.4154 460.78 24.0772 451.807 8.07787 444.278C-11.7921 434.896 -33.0204 427.847 -54.6334 423.854C-80.6579 419.09 -107.56 418.513 -133.656 423.144C-137.864 423.938 -142.528 424.9 -146.639 426.127H-146.627Z"></path>
<path fill="#EFE4B8" d="M-145.893 431.864C-111.298 418.982 -69.6108 421.4 -34.5108 431.299C-8.10167 438.792 17.0453 451.001 39.5238 466.65C1.05798 444.686 -41.4827 428.881 -85.9468 426.391C-105.985 425.405 -126.492 426.439 -145.905 431.852L-145.893 431.864Z"></path>
<path fill="#EFE4B8" d="M-34.6792 439.574C-18.7279 441.222 1.13004 447.958 13.3429 458.543C-2.03137 451.218 -18.8241 445.721 -34.6792 439.574Z"></path>
<path fill="#EFE4B8" d="M-132.863 447.405C-94.7096 435.376 -47.8174 436.531 -10.5657 451.23C-5.03625 453.359 0.324905 455.921 5.54182 458.675C-5.39687 454.297 -16.5519 450.604 -28.0436 447.994C-48.0338 443.375 -68.637 441.679 -89.12 442.305C-103.785 442.846 -118.498 444.349 -132.863 447.405Z"></path>
<path fill="#EFE4B8" d="M-129.341 455.668C-111.046 448.68 -91.2963 445.685 -71.7508 445.444C-50.7509 445.24 -29.4866 448.884 -10.1816 457.28C-6.47924 458.916 -2.50044 460.936 1.04562 462.921C-0.324722 462.392 -3.51016 461.201 -4.80838 460.684C-6.0465 460.251 -9.40023 459.084 -10.6985 458.627C-48.8757 446.058 -90.4428 446.731 -129.341 455.668Z"></path>
<path fill="#EFE4B8" d="M205.683 461.622C238.62 439.321 282.651 429.362 321.538 428.4C335.037 428.099 371.291 426.403 384.621 428.328C367.829 427.991 328.341 430.781 311.669 432.321C275.198 435.978 238.656 444.542 205.671 461.622H205.683Z"></path>
<path fill="#EFE4B8" d="M215.997 465.35C215.949 465.266 216.069 465.194 216.117 465.134C216.19 465.074 216.25 465.014 216.322 464.953C218.498 463.257 220.914 461.91 223.294 460.575C230.999 456.365 239.065 452.925 247.287 449.978C280.163 438.407 315.648 434.161 350.111 438.564C315.672 438.768 281.293 442.942 248.176 452.961C239.918 455.463 231.72 458.254 223.726 461.586C221.238 462.656 218.714 463.678 216.346 465.026C216.274 465.074 216.19 465.122 216.117 465.182C216.057 465.23 215.925 465.29 215.973 465.374L215.997 465.35Z"></path>
<path fill="#EFE4B8" d="M224.892 472.038C255.244 451.121 294.744 443.315 330.649 446.671C334.267 447.128 338.354 447.657 341.937 448.222C331.875 448.294 321.802 448.15 311.777 449.064C281.882 451.289 252.059 458.687 224.88 472.05L224.892 472.038Z"></path>
<path fill="#EFE4B8" d="M69.8276 429.759C100.769 417.55 140.424 412.932 172.387 423.552C177.087 425.26 181.679 427.245 185.958 429.759C181.21 428.28 176.498 426.969 171.714 425.982C137.96 419.343 103.401 423.901 69.8276 429.771V429.759Z"></path>
<path fill="#EFE4B8" d="M76.7275 419.403C112.945 407.832 164.562 402.539 200.611 416.191C159.477 409.455 117.814 414.616 76.7275 419.403Z"></path>
<path fill="#EFE4B8" d="M84.6968 409.576C123.391 395.912 172.411 393.241 209.987 411.608C215.444 414.387 220.649 417.646 225.433 421.375C218.041 417.49 210.516 414.243 202.63 411.68C164.441 399.893 123.619 402.768 84.6968 409.576Z"></path>
<path fill="#EFE4B8" d="M341.624 130.822C349.089 133.492 353.525 131.219 355.832 123.762C349.353 120.851 344.064 123.425 341.624 130.822ZM291.523 279.527C288.361 286.744 290.597 291.868 297.701 294.105C301.091 287.634 299.023 282.63 291.523 279.527ZM252.925 212.542C258.67 218.051 264.188 217.894 268.683 212.253C263.839 206.78 257.757 206.828 252.925 212.542ZM286.294 207.718C293.278 205.217 295.573 198.709 291.643 193.02C284.887 195.69 282.796 201.211 286.294 207.718ZM513.698 169.541C509.708 162.517 503.108 160.977 498.384 165.788C502.856 172.416 507.328 173.546 513.698 169.541ZM457.25 203.869C449.701 204.675 446.023 210.064 448.295 216.655C455.459 215.97 458.825 211.267 457.25 203.869ZM304.12 133.336C308.243 128.044 305.478 121.091 298.386 118.926C295.081 125.373 296.908 129.992 304.12 133.336ZM261.399 124.303C258.286 131.351 261.086 137.317 267.878 138.46C270.823 131.484 268.587 126.42 261.399 124.303ZM275.054 311.774C280.932 307.504 281.257 300.275 275.752 296.222C269.97 301.129 269.717 306.723 275.054 311.774ZM467.924 115.438C462.383 120.719 462.683 126.516 468.742 131.171C474.055 125.53 473.778 120.021 467.924 115.438ZM231.576 129.21C238.127 124.856 239.101 118.409 234.112 113.802C227.874 117.88 226.96 123.088 231.576 129.21ZM331.13 281.981C325.192 287.453 325.012 292.529 330.409 297.774C336.155 292.926 336.479 287.129 331.13 281.981ZM350.868 84.4295C349.197 77.5373 340.951 75.0234 336.215 79.0649C339.629 86.1735 345.158 88.2063 350.868 84.4295ZM366.302 73.0027C358.621 73.9168 355.063 78.5597 356.698 85.2955C364.187 85.6804 368.214 79.1731 366.302 73.0027ZM320.192 282.113C313.616 286.335 312.546 292.108 317.186 297.545C323.545 294.141 324.747 288.331 320.192 282.113ZM252.925 76.563C249.931 83.6356 252.227 88.916 259.019 90.9968C262.589 84.7783 260.221 78.9927 252.925 76.563ZM164.117 149.803C165.739 157.417 171.497 160.676 177.652 157.669C176.293 150.609 171.245 147.602 164.117 149.803ZM264.308 297.401C271.412 297.701 275.728 292.421 274.201 285.3C266.748 285.673 263.106 290.124 264.308 297.401ZM303.94 87.4004C299.829 80.5323 294.155 79.1491 288.65 83.4552C291.847 90.0587 296.86 91.4058 303.94 87.4004ZM374.176 149.141C374.765 156.43 379.934 160.039 386.858 157.994C386.244 150.657 381.16 147.108 374.176 149.141ZM264.32 283.677C257.721 280.718 251.783 283.917 250.52 291.122C257.48 293.6 262.673 290.797 264.32 283.677ZM428.905 215.609C423.148 210.22 417.125 210.521 413.098 216.222C418.195 221.575 424.145 221.407 428.905 215.609ZM228.475 282.305C223.366 288.187 223.991 293.588 230.11 298.014C235.182 292.553 234.677 287.068 228.475 282.305ZM364.283 118.818C361.506 111.685 353.861 110.146 349.305 114.32C352.25 120.899 357.563 122.535 364.283 118.818ZM213.245 145.436C210.3 137.787 202.703 136.548 198.411 140.132C200.791 146.916 206.393 148.973 213.245 145.436ZM215.649 175.038C222.356 171.754 223.979 165.211 219.387 159.918C212.752 163.791 211.382 169.312 215.649 175.038ZM443.438 252.006C447.97 246.966 448.162 240.315 441.419 236.189C436.611 242.215 437.236 247.412 443.438 252.006ZM318.641 159.305C323.197 153.243 321.069 145.316 314.638 144.342C310.96 151.246 312.234 155.985 318.641 159.305ZM458.284 246.966C461.373 239.485 458.837 233.82 451.937 232.376C449.268 239.762 450.975 243.791 458.284 246.966ZM185.886 216.283C179.251 212.482 173.156 214.683 171.185 221.382C177.363 225.039 182.785 223.223 185.886 216.283ZM283.938 274.379C285.921 266.849 282.724 261.881 275.571 260.991C272.915 268.196 277.543 273.645 283.938 274.379ZM352.659 108.089C359.835 111.24 364.92 109.063 367.336 101.991C360.965 98.6468 355.52 100.848 352.659 108.089ZM325.781 71.2345C318.304 74.3619 315.924 80.3759 319.855 85.6924C327.043 82.5531 329.123 77.6455 325.781 71.2345ZM230.699 237.969C224.929 243.514 224.881 248.711 230.386 253.835C236.06 249.276 236.24 243.55 230.699 237.969ZM490.799 211.844C494.249 219.145 499.755 221.166 505.633 217.437C502.615 210.317 497.278 208.236 490.799 211.844ZM234.064 178.213C236.985 171.345 233.908 165.56 226.756 164.477C224.135 171.297 226.972 176.638 234.064 178.213ZM183.049 233.856C190.285 232.761 193.928 226.122 190.514 220.288C184.287 221.455 180.152 226.843 183.049 233.856ZM345.555 183.025C348.548 176.181 345.447 170.01 338.667 168.916C335.83 175.639 338.126 180.475 345.555 183.025ZM223.691 282.173C228.763 275.954 228.246 270.915 222.296 266.548C217.007 271.36 217.524 277.759 223.691 282.173ZM376.328 246.642C379.621 240.002 376.868 233.844 369.957 232.4C366.855 239.112 369.199 244.356 376.328 246.642ZM211.802 230.307C217.091 224.353 216.442 218.171 210.372 214.683C205.359 220.432 205.792 225.616 211.802 230.307ZM420.359 229.634C418.411 221.755 414.108 219.037 407.268 221.19C407.749 228.227 413.363 231.931 420.359 229.634ZM286.041 105.948C279.298 101.522 272.59 103.193 270.787 109.568C277.302 113.598 282.327 112.467 286.041 105.948ZM215.3 113.189C213.064 119.023 217.272 126.264 224.496 125.758C225.95 118.481 222.753 114.031 215.3 113.189ZM537.523 205.433C534.422 198.132 529.277 196.039 523.002 199.395C524.589 206.6 532.691 208.873 537.523 205.433ZM457.19 98.1777C464.522 96.2171 467.227 90.8645 464.414 84.225C457.562 85.4037 454.665 90.8285 457.19 98.1777ZM264.596 91.935C271.689 91.8268 275.764 86.4502 273.888 79.6663C266.7 79.7144 262.829 84.8264 264.596 91.935ZM319.975 112.936C312.703 110.242 307.75 112.768 305.683 119.997C312.607 122.811 316.97 120.706 319.975 112.936ZM462.563 217.064C470.04 216.018 473.466 211.207 471.723 204.459C464.45 204.711 460.712 209.715 462.563 217.064ZM447.862 90.5157C443.51 96.8426 445.217 103.458 451.745 105.623C455.892 99.4166 454.485 93.9197 447.862 90.5157ZM429.062 72.6538C423.22 77.9703 423.4 83.9964 429.362 88.4228C434.651 82.9981 434.603 78.1628 429.062 72.6538ZM296.535 76.7675C293.073 70.0076 286.558 68.3959 281.305 73.0147C284.983 79.5821 290.489 80.9292 296.535 76.7675ZM357.107 138.003C354.63 132.987 346.264 131.159 341.468 137.811C346.372 143.067 351.649 143.211 357.107 138.003ZM239.089 161.422C246.554 162.649 251.061 158.92 251.362 151.499C244.486 149.923 239.99 153.471 239.089 161.422ZM239.906 293.071C246.397 291.134 249.751 284.073 245.532 278.492C240.063 280.164 235.976 285.769 239.906 293.071ZM306.668 153.098C310.743 146.278 309.289 140.589 302.918 137.811C298.651 144.053 299.865 149.285 306.668 153.098ZM171.101 244.404C175.981 250.828 181.691 251.718 186.691 246.979C182.46 240.592 176.943 239.629 171.101 244.404ZM285.08 179.356C277.867 182.531 275.764 188.654 279.839 194.127C286.618 191.336 288.626 185.887 285.08 179.356ZM520.634 205.565C520.815 198.108 515.562 193.453 508.938 195.209C508.986 202.619 513.566 206.672 520.634 205.565ZM287.387 168.543C293.001 174.015 298.206 173.823 303.243 168.074C299.264 162.962 292.196 162.577 287.387 168.543ZM188.867 160.52C190.935 153.098 186.908 147.385 179.948 147.505C178.77 155.215 181.366 159.088 188.867 160.52ZM514.684 141.01C507.255 139.458 502.796 142.634 501.87 149.899C508.53 152.172 513.915 148.528 514.684 141.01ZM471.025 197.025C465.376 191.913 459.39 192.804 455.303 199.287C461.253 203.93 465.881 203.34 471.025 197.025ZM473.297 199.96C476.795 207.249 482.938 209.354 488.011 205.156C484.669 198.156 479.464 196.256 473.297 199.96ZM373.07 225.773C373.851 218.869 368.863 214.202 361.747 215.152C361.482 222.633 365.93 226.807 373.07 225.773ZM210.54 151.39C214.182 157.886 220.253 158.992 226.035 154.193C221.755 147.806 216.454 146.856 210.54 151.39ZM315.431 77.0562C319.579 71.9081 318.112 64.3183 311.272 61.9367C307.197 67.9749 308.688 73.3876 315.431 77.0562ZM397.989 107.403C402.088 114.608 407.437 116.148 413.146 111.986C410.033 105.274 404.684 103.602 397.989 107.403ZM245.135 248.915C247.768 241.602 245.207 236.598 238.091 234.758C235.074 241.289 237.478 246.257 245.135 248.915ZM290.789 146.074C297.761 143.777 300.153 136.872 295.862 131.4C289.058 134.611 287.339 139.591 290.789 146.074ZM228.679 152.774C235.687 156.406 241.433 154.217 243.368 147.361C236.769 143.969 231.54 145.833 228.679 152.774ZM436.25 116.1C436.358 108.642 430.793 104.12 424.278 106.357C424.746 113.622 429.23 117.266 436.25 116.1ZM491.857 138.989C487.986 145.593 490.078 151.86 496.677 153.952C500.32 147.397 498.733 142.297 491.857 138.989ZM420.491 114.849C417.173 121.332 419.998 127.526 426.982 129.09C429.915 122.162 427.691 117.29 420.491 114.849ZM490.427 199.972C495.403 194.03 494.934 188.678 489.068 184.276C483.707 189.52 484.26 195.871 490.427 199.972ZM381.112 219.53C375.402 224.823 375.27 230.572 380.619 235.299C386.401 231.113 386.497 224.414 381.112 219.53ZM462.431 118.638C459.317 111.625 453.151 109.797 447.549 114.007C450.338 120.562 455.555 122.234 462.431 118.638ZM514.348 175.904C507.075 177.889 504.202 183.963 507.724 189.929C515.033 187.439 517.569 182.074 514.348 175.904ZM502.579 192.407C505.861 185.587 502.928 179.272 496.064 178.081C493.143 184.697 495.055 189.027 502.579 192.407ZM434.964 96.9628C433.329 104.661 437.043 109.941 443.847 109.857C445.434 102.508 442.392 97.9852 434.964 96.9628ZM253.718 128.308C247.948 133.059 248.044 140.024 253.742 143.849C259.235 139.049 259.283 133.541 253.718 128.308ZM352.178 233.447C358.838 237.248 365.305 234.986 366.915 228.503C360.244 224.943 354.967 226.663 352.178 233.447ZM398.385 102.797C405.994 104.408 411.019 100.716 411.091 93.6791C403.999 92.0072 399.599 95.0864 398.385 102.797ZM440.048 122.523C443.198 129.523 449.629 131.376 455.17 127.021C451.216 120.249 446.732 118.854 440.048 122.523ZM382.927 202.763C390.259 205.084 394.971 202.306 396.606 194.896C389.502 192.046 383.888 196.304 382.927 202.763ZM270.763 166.041C271.977 158.619 267.025 153.267 260.125 154.241C259.764 161.783 262.829 165.235 270.763 166.041ZM408.122 129.198C400.549 128.26 396.678 131.424 395.849 139.037C402.484 140.974 407.509 137.065 408.122 129.198ZM477.384 129.92C484.573 126.733 486.616 121.248 483.022 115.137C475.834 117.303 473.838 124.736 477.384 129.92ZM243.524 228.78C242.395 220.986 236.336 217.329 230.338 220.637C232.285 227.974 236.456 230.62 243.524 228.78ZM486.039 216.679C484.525 224.029 488.72 229.249 495.644 228.912C497.387 220.865 491.917 216.8 486.039 216.679ZM250.244 115.991C255.148 122.559 260.365 123.365 265.883 118.578C261.327 112.215 256.062 111.288 250.244 115.991ZM248.994 274.607C254.872 269.327 254.848 262.699 249.078 258.85C243.609 264.119 243.536 268.485 248.994 274.607ZM487.89 126.432C495.716 127.767 500.921 123.882 500.536 117.182C493.167 115.811 488.768 118.95 487.89 126.432ZM274.958 160.929C279.622 166.474 286.39 166.257 290.609 160.436C285.236 155.071 279.754 155.251 274.958 160.929ZM199.169 217.221C193.892 222.778 194.421 229.213 200.467 232.869C205.527 227.312 205.107 222.164 199.169 217.221ZM295.706 269.399C297.966 262.399 294.552 256.89 287.568 256.264C284.719 262.747 289.275 269.026 295.706 269.399ZM236.48 281.139C241.433 275.1 240.832 269.435 235.002 265.622C229.761 270.349 230.326 277.145 236.48 281.139ZM500.115 222.417C498.517 229.995 502.279 235.179 509.275 235.239C510.922 228.202 507.856 223.8 500.115 222.417ZM216.478 280.489C210.829 282.798 208.328 290.593 213.473 295.705C219.784 292.686 221.01 286.431 216.478 280.489ZM336.011 86.5584C328.594 83.7198 322.199 86.9313 321.935 93.4145C329.075 95.9284 333.703 93.7393 336.011 86.5584ZM282.159 94.7617C285.404 101.461 291.799 103.037 297.328 98.4904C293.326 91.7667 288.061 90.4796 282.159 94.7617ZM516.139 154.843C510.164 150.356 503.505 151.932 500.872 158.439C506.931 162.637 512.605 161.302 516.139 154.843ZM249.679 196.22C251.097 203.701 255.93 206.792 262.637 204.699C262.289 197.615 256.879 193.982 249.679 196.22ZM269.2 102.869C276.593 102.376 279.887 98.0574 278.793 90.5999C271.881 90.191 267.806 95.2909 269.2 102.869ZM353.068 159.738C347.214 154.494 339.989 155.251 337.489 161.169C342.838 166.101 347.887 165.692 353.068 159.738ZM455.026 164.994C450.639 159.113 444.172 158.848 439.243 164.345C444.64 170.106 449.629 170.311 455.026 164.994ZM484.537 147.229C484.729 139.651 479.668 135.116 473.069 136.74C472.829 143.969 476.964 147.842 484.537 147.229ZM188.951 197.735C188.53 204.892 193.363 209.294 200.419 208.188C200.695 200.802 195.983 196.496 188.951 197.735ZM282.639 283.592C277.507 289.618 278.06 295.392 283.974 299.433C289.167 293.913 288.782 288.68 282.639 283.592ZM304.901 76.7314C304.288 84.4896 308.147 88.7476 315.383 88.5431C316.585 81.5547 312.679 77.0441 304.901 76.7314ZM388.492 75.3121C394.551 70.1159 394.539 62.887 388.637 59.7235C383.239 65.1603 383.155 69.9475 388.492 75.3121ZM332.885 62.3938C332.356 69.8032 336.648 74.1333 343.896 73.4718C344.293 65.882 339.809 61.3594 332.885 62.3938ZM400.212 155.131C399.058 161.891 404.311 167.328 410.995 166.077C412.221 158.932 406.102 153.604 400.212 155.131ZM381.448 174.232C384.489 167.183 381.605 160.772 375.198 159.967C372.192 166.738 374.32 171.742 381.448 174.232ZM307.45 73.9409C306.668 66.2428 301.091 62.2976 294.888 64.8235C295.573 72.0524 300.129 75.4324 307.45 73.9409ZM205.491 287.489C199.469 289.931 197.654 298.171 202.703 302.898C208.196 299.782 210.576 293.84 205.491 287.489ZM199.169 121.332C203.147 128.224 209.53 129.619 214.495 124.82C210.432 118.373 205.972 117.303 199.169 121.332ZM302.834 187.932C310.022 184.925 312.126 178.995 308.195 173.234C301.307 176.217 299.396 181.28 302.834 187.932ZM394.082 93.6431C401.763 94.8699 406.066 91.7426 406.836 84.5257C399.78 82.5531 394.671 86.1014 394.082 93.6431ZM372.012 59.6514C366.399 65.4249 366.663 71.3187 372.529 75.3482C377.746 70.14 377.614 64.5468 372.012 59.6514ZM279.935 175.567C273.311 171.983 267.421 174.304 265.222 181.196C272.049 184.42 276.942 182.604 279.935 175.567ZM302.557 104.553C307.233 111.18 312.559 112.215 318.076 107.752C313.737 101.113 308.64 100.006 302.557 104.553ZM257.649 97.2515C253.682 90.6721 247.287 89.4813 242.274 94.2204C246.217 100.547 251.626 101.678 257.649 97.2515ZM308.496 280.97C301.464 284.458 299.805 290.352 304.12 295.969C310.743 292.686 312.414 287.213 308.496 280.97ZM195.935 271.239C191.776 277.278 193.651 283.568 200.407 286.239C204.265 279.719 202.751 274.619 195.935 271.239ZM202.378 183.049C205.263 190.458 211.309 192.9 216.731 189.051C214.122 182.026 209.122 179.873 202.378 183.049ZM289.311 108.63C292.412 115.414 299.564 117.194 304.348 112.359C300.61 105.852 295.417 104.565 289.311 108.63ZM211.165 264.901C204.758 269.074 203.688 275.04 208.436 280.2C214.843 276.484 215.901 270.59 211.165 264.901ZM354.679 252.391C361.662 250.84 364.523 243.959 360.653 238.042C353.789 240.579 351.673 245.655 354.679 252.391ZM403.999 143.897C405.598 151.511 410.935 154.867 417.029 152.1C415.887 144.631 410.502 141.239 403.999 143.897ZM402.977 80.9894C409.901 79.2453 412.557 73.2913 409.312 66.7961C402.544 68.2154 399.912 74.0972 402.977 80.9894ZM377.157 73.147C375.294 80.2316 378.876 85.1271 386.293 85.5962C388.384 78.9687 384.586 73.7845 377.157 73.147ZM186.824 188.209C194.372 189.893 199.625 185.996 199.613 178.911C192.617 177.431 188.603 180.27 186.824 188.209ZM369.512 93.0898C375.125 98.4303 383.384 95.8803 385.163 90.3714C378.96 86.0051 374.26 86.775 369.512 93.0898ZM250.989 166.378C249.595 173.643 253.441 178.478 260.714 178.61C262.084 171.309 258.358 166.618 250.989 166.378ZM391.365 107.945C391.137 100.307 386.004 96.2291 379.285 98.0935C379.453 105.298 383.588 108.738 391.365 107.945ZM334.304 94.8098C327.139 95.736 323.137 103.59 326.803 108.558C334.268 106.08 336.588 101.906 334.304 94.8098ZM185.417 279.214C181.51 285.757 183.626 292.156 190.141 294.093C193.783 287.441 192.245 282.426 185.417 279.214ZM225.073 130.521C218.882 126.48 212.055 128.922 210.312 135.718C217.031 138.977 221.407 137.51 225.073 130.521ZM517.1 171.947C524.048 171.381 527.498 165.704 525.082 158.8C517.942 159.016 514.564 166.281 517.1 171.947ZM366.483 86.5584C359.33 86.5344 355.255 91.6223 356.794 98.6588C363.934 98.755 367.961 93.7272 366.483 86.5584ZM248.261 177.636C250.112 170.491 246.782 165.86 239.149 164.934C237.202 171.838 240.76 176.806 248.261 177.636ZM325.12 122.463C317.319 120.165 312.823 122.559 311.032 129.764C318.16 132.302 323.317 129.716 325.12 122.463ZM455.098 108.714C462.779 109.929 467.203 106.694 467.9 99.585C460.784 97.6725 455.819 101.137 455.098 108.714ZM366.747 155.757C372.529 150.765 372.625 144.715 367.096 140C361.578 144.354 361.374 150.019 366.747 155.757ZM199.77 258.417C201.789 251.297 197.943 245.884 190.91 245.643C189.023 252.475 192.209 257.178 199.77 258.417ZM208.1 255.903C213.004 250.13 211.874 243.911 205.359 240.279C200.9 246.088 201.669 250.84 208.1 255.903ZM446.239 193.261C452.021 187.68 452.117 182.147 446.684 177.431C441.01 182.363 440.806 187.92 446.239 193.261ZM243.873 215.874C245.4 223.608 252.191 227.601 257.096 223.8C255.293 216.439 251.121 213.865 243.873 215.874ZM414.913 268.136C421.032 263.926 421.453 257.599 416.043 252.451C410.262 256.914 409.853 261.641 414.913 268.136ZM470.364 239.148C470.797 231.318 466.446 226.903 459.462 227.89C458.692 234.878 462.635 239.052 470.364 239.148ZM287.568 211.868C288.397 219.554 294.684 223.439 300.682 220.204C298.939 212.927 295.008 210.365 287.568 211.868ZM441.094 195.077C436.563 189.76 429.122 189.748 425.419 195.75C430.841 200.911 436.214 200.718 441.094 195.077ZM518.747 185.057C524.745 185.49 530.756 180.402 528.472 172.957C521.319 173.21 517.701 177.636 518.747 185.057ZM316.958 136.295C318.977 143.801 325.036 146.916 330.758 143.548C329.339 136.403 322.8 133.468 316.958 136.295ZM410.093 194.439C404.311 199.948 404.323 206.275 409.961 210.1C415.442 205.385 415.563 199.672 410.093 194.439ZM182.712 293.732C175.668 295.801 173.084 302.453 177.087 308.226C183.951 305.496 185.862 300.552 182.712 293.732ZM365.713 159.582C361.001 165.68 361.891 171.081 368.154 175.29C372.818 169.361 372.048 163.972 365.713 159.582ZM199.926 238.054C194.372 232.629 188.194 232.978 184.215 238.92C189.889 244.068 195.418 243.767 199.926 238.054ZM276.088 230.38C274.249 222.549 268.876 219.314 262.805 222.212C264.5 229.682 269.02 232.533 276.088 230.38ZM215.661 200.153C221.19 201.596 228.222 196.496 226.311 188.918C218.618 189.135 215.156 192.779 215.661 200.153ZM349.978 64.9077C345.411 70.8496 346.805 77.0081 353.248 80.1715C357.6 74.7227 356.446 68.9612 349.978 64.9077ZM491.388 163.274C493.011 155.841 489.08 150.693 482.096 150.753C480.774 158.09 483.924 162.42 491.388 163.274ZM442.801 94.9541C445.975 87.9537 443.655 82.4929 436.767 80.3158C433.545 87.0516 435.565 92.1155 442.801 94.9541ZM381.46 208.067C376.147 203.617 369.476 205.169 366.399 211.58C372.072 216.018 378.239 214.587 381.46 208.067ZM495.511 133.505C490.355 127.683 484.428 127.683 479.885 133.324C484.212 138.773 490.114 138.905 495.511 133.505ZM246.421 231.919C247.948 239.341 254.03 242.66 259.933 239.509C257.877 231.955 253.586 229.489 246.421 231.919ZM250.148 210.329C250.773 202.991 246.433 198.469 239.498 198.962C238.019 204.627 242.455 211.459 250.148 210.329ZM412.521 235.227C408.098 228.804 401.811 227.878 397.039 232.785C401.547 239.04 406.607 239.906 412.521 235.227ZM515.285 208.945C514.624 215.958 519.42 220.444 526.596 219.554C527.354 212.842 522.449 207.779 515.285 208.945ZM259.945 267.078C267.025 264.901 269.489 258.357 265.642 252.463C258.827 255.23 256.963 259.849 259.945 267.078ZM437.043 205.169C430.961 199.804 425.732 200.081 421.128 205.83C426.778 211.122 432.247 210.954 437.043 205.169ZM475.93 236.49C474.163 243.899 477.372 248.398 484.969 249.504C486.832 242.504 483.815 238.066 475.93 236.49ZM286.714 250.455C279.778 246.57 273.071 248.735 271.737 255.098C278.468 258.646 283.3 257.19 286.714 250.455ZM195.382 162.108C202.029 158.872 203.604 152.726 199.241 147.06C192.714 150.091 191.091 156.442 195.382 162.108ZM529.818 191.216C523.483 185.719 518.987 185.887 513.807 191.649C519.372 197.098 524.529 197.013 529.818 191.216ZM310.214 270.361C313.244 262.988 311.092 258.129 303.988 255.843C300.778 262.266 303.17 267.992 310.214 270.361ZM289.203 113.598C282.303 111.962 277.807 115.318 276.581 123.052C284.07 125.482 289.551 119.528 289.203 113.598ZM421.525 192.984C428.425 189.123 429.903 182.58 425.131 177.648C418.616 181.593 417.474 186.188 421.525 192.984ZM391.57 115.775C386.425 110.314 380.835 110.579 376.015 116.497C380.667 121.885 387.11 121.597 391.57 115.775ZM242.383 113.622C244.979 107.006 241.661 101.293 234.617 100.235C231.973 106.898 235.206 112.479 242.383 113.622ZM456.396 184.648C462.19 179.2 462.226 172.957 456.505 169.036C451.192 173.186 450.759 180.523 456.396 184.648ZM357.84 149.189C351.902 143.704 346.48 143.873 341.997 149.514C347.37 154.975 352.912 154.903 357.84 149.189ZM280.283 133.745C287.76 134.996 292.1 131.592 292.749 124.219C286.029 122.222 281.077 125.939 280.283 133.745ZM413.159 104.721C421.068 104.721 425.179 100.307 423.905 93.4145C416.344 93.3905 412.654 97.1793 413.159 104.721ZM170.632 295.524C178.061 293.624 180.873 287.874 177.616 281.656C170.524 283.592 167.927 288.596 170.632 295.524ZM226.191 224.594C227.922 217.233 223.991 211.868 217.127 211.988C215.613 219.326 218.618 223.608 226.191 224.594ZM178.409 253.498C178.589 261.16 183.41 265.081 190.394 263.517C190.057 256.144 185.778 252.511 178.409 253.498ZM439.075 129.078C434.098 135.309 434.651 140.649 440.565 144.883C445.59 139.302 445.133 133.721 439.075 129.078ZM239.954 211.604C235.326 205.241 228.691 204.459 224.52 209.595C228.679 215.633 234.052 216.379 239.954 211.604ZM432.259 244.152C424.879 247.568 422.691 253.378 426.622 258.754C433.605 255.903 435.649 250.84 432.259 244.152ZM339.376 195.991C331.671 195.618 327.32 200.069 328.257 207.117C335.806 207.358 339.485 203.761 339.376 195.991ZM474.127 115.57C481.123 112.166 482.745 107.427 479.32 100.812C472.588 102.7 470.364 108.775 474.127 115.57ZM315.588 96.8666C311.789 90.227 305.466 88.9039 300.249 93.6551C304.18 100.138 309.529 101.257 315.588 96.8666ZM391.149 87.4485C398.301 85.3195 400.837 79.2814 397.303 73.2071C390.896 74.8069 387.903 80.7729 391.149 87.4485ZM410.839 116.316C403.362 115.089 398.542 119.155 398.722 126.312C406.379 127.142 410.442 123.858 410.839 116.316ZM444.941 173.089C439.471 167.28 433.016 167.232 429.206 172.789C434.627 178.346 439.616 178.49 444.941 173.089ZM390.151 222.237C395.212 216.487 394.37 210.112 388.276 206.744C383.408 211.856 384.033 217.642 390.151 222.237ZM338.126 181.112C330.157 181.365 326.526 185.117 327.139 192.202C334.556 192.816 339.148 188.257 338.126 181.112ZM374.428 123.088C375.137 130.666 380.378 134.274 387.086 132.037C386.461 124.928 382.049 121.729 374.428 123.088ZM397.327 200.79C393.745 207.839 395.813 213.3 402.761 215.573C406.151 209.09 404.347 204.038 397.327 200.79ZM208.376 154.891C201.741 158.343 200.275 163.767 204.313 169.95C210.504 168.098 212.98 160.52 208.376 154.891ZM482.685 190.205C477.829 184.492 471.831 184.42 467.131 190.025C472.252 195.786 478.118 195.859 482.685 190.205ZM414.913 128.14C411.968 135.261 414.337 140.361 421.429 142.562C424.482 135.766 422.246 130.654 414.913 128.14ZM475.317 222.754C474.115 230.344 478.07 235.131 485.15 234.89C486.099 227.373 482.782 223.175 475.317 222.754ZM456.384 159.642C461.565 153.64 461.024 148.119 455.014 143.897C449.905 149.069 450.314 154.458 456.384 159.642ZM334.195 116.184C341.841 114.344 344.774 109.003 341.829 102.616C334.64 104.228 331.912 108.955 334.195 116.184ZM247.01 122.138C239.618 123.413 236.216 129.319 239.089 135.513C246.325 134.058 249.138 129.403 247.01 122.138ZM420.828 78.0545C413.483 80.8932 411.271 86.6066 415.058 92.4883C422.198 89.4452 423.965 85.1511 420.828 78.0545ZM374.669 99.6572C369.235 101.726 366.086 108.967 371.483 114.945C378.01 110.819 379.176 105.25 374.669 99.6572ZM233.055 139.783C225.926 136.379 220.084 138.641 218.305 145.316C225.049 148.576 229.929 146.808 233.055 139.783ZM275.271 279.647C273.66 272.298 267.157 269.11 261.459 272.887C264.14 280.273 268.443 282.377 275.271 279.647ZM338.763 88.3747C337.417 95.4112 342.418 100.728 349.474 99.7413C349.726 92.1516 346.408 88.6153 338.763 88.3747ZM222.909 254.989C224.784 247.532 221.695 242.841 214.339 241.71C212.235 248.795 215.3 253.666 222.909 254.989ZM330.613 225.219C337.477 221.659 339.004 216.114 334.736 210.172C328.125 213.047 326.478 219.037 330.613 225.219ZM216.526 230.921C219.195 236.803 227.285 238.27 232.033 233.134C227.513 226.928 222.092 226.146 216.526 230.921ZM372.89 137.269C374.717 145.148 379.14 148.035 385.752 145.845C385.283 138.737 379.874 135.044 372.89 137.269ZM416.921 187.03C412.257 182.098 405.189 183.65 401.763 190.374C407.509 194.548 412.93 193.357 416.921 187.03ZM461.77 166.341C460.303 173.751 464.294 178.731 471.398 178.61C472.937 171.778 469.607 167.436 461.77 166.341ZM477.072 158.776C471.819 163.948 472.408 170.696 478.43 174.328C483.166 169.818 483.322 163.166 477.072 158.776ZM367.949 179.464C360.689 176.998 355.7 179.693 353.933 186.862C360.893 189.496 365.87 186.946 367.949 179.464ZM226.972 114.476C230.242 107.68 227.621 101.894 220.637 100.006C217.812 107.199 219.604 111.385 226.972 114.476ZM259.993 295.103C253.057 294.382 247.96 302.092 250.737 307.18C258.25 306.578 261.892 301.815 259.993 295.103ZM435.312 144.294C428.184 146.988 425.972 152.377 429.41 158.74C436.623 156.021 438.979 150.26 435.312 144.294ZM202.029 191.745C200.311 199.527 203.748 204.735 210.552 204.928C212.247 197.47 209.458 193.02 202.029 191.745ZM245.652 108.293C251.097 113.441 258.971 111.385 261.147 105.683C254.728 101.125 249.583 101.991 245.652 108.293ZM368.334 120.767C361.674 125.085 360.533 131.436 365.389 136.127C371.7 132.326 372.781 126.997 368.334 120.767ZM461.481 140.77C461.109 148.323 465.929 152.834 472.708 151.27C472.804 143.849 468.513 139.843 461.481 140.77ZM499.851 201.235C499.25 208.512 503.902 212.83 511.126 211.964C511.294 204.507 507.748 201.055 499.851 201.235ZM188.518 212.013C188.723 204.471 184.311 200.237 177.279 201.247C176.45 208.753 182.328 213.167 188.518 212.013Z"></path>
<path fill="#EFE4B8" d="M326.851 54.7319C327.296 56.6444 327.981 58.5328 328.149 60.4694C328.534 64.8837 325.685 68.5644 321.165 69.8995C318.184 64.98 318.833 60.4333 323.028 56.909C323.822 56.2355 324.651 55.622 325.468 54.9725C325.925 54.8883 326.382 54.8161 326.851 54.7319Z"></path>
<path fill="#EFE4B8" d="M341.624 130.822C344.052 123.425 349.353 120.851 355.832 123.762C353.524 131.219 349.089 133.492 341.624 130.822Z"></path>
<path fill="#EFE4B8" d="M291.523 279.527C299.023 282.63 301.091 287.634 297.701 294.105C290.597 291.868 288.361 286.744 291.523 279.527Z"></path>
<path fill="#EFE4B8" d="M252.925 212.542C257.757 206.828 263.839 206.78 268.684 212.253C264.188 217.894 258.671 218.051 252.925 212.542Z"></path>
<path fill="#EFE4B8" d="M286.294 207.718C282.796 201.199 284.887 195.69 291.643 193.02C295.574 198.721 293.278 205.229 286.294 207.718Z"></path>
<path fill="#EFE4B8" d="M304.12 133.336C296.908 129.992 295.081 125.373 298.386 118.926C305.478 121.091 308.243 128.056 304.12 133.336Z"></path>
<path fill="#EFE4B8" d="M261.399 124.303C268.575 126.42 270.811 131.496 267.878 138.46C261.087 137.306 258.298 131.34 261.399 124.303Z"></path>
<path fill="#EFE4B8" d="M275.055 311.775C269.718 306.723 269.97 301.13 275.752 296.222C281.257 300.276 280.933 307.493 275.055 311.775Z"></path>
<path fill="#EFE4B8" d="M231.576 129.211C226.96 123.089 227.874 117.868 234.113 113.803C239.101 118.422 238.128 124.857 231.576 129.211Z"></path>
<path fill="#EFE4B8" d="M331.131 281.98C336.48 287.141 336.155 292.926 330.41 297.773C325.012 292.517 325.193 287.453 331.131 281.98Z"></path>
<path fill="#EFE4B8" d="M350.868 84.4296C345.158 88.2065 339.629 86.1857 336.215 79.0651C340.939 75.0236 349.197 77.5254 350.868 84.4296Z"></path>
<path fill="#EFE4B8" d="M366.303 73.0029C368.214 79.1614 364.175 85.6686 356.698 85.2957C355.076 78.56 358.634 73.9171 366.303 73.0029Z"></path>
<path fill="#EFE4B8" d="M320.192 282.113C324.747 288.319 323.545 294.141 317.187 297.545C312.547 292.108 313.616 286.335 320.192 282.113Z"></path>
<path fill="#EFE4B8" d="M252.925 76.563C260.222 78.9927 262.59 84.7903 259.019 90.9968C252.24 88.9039 249.944 83.6356 252.925 76.563Z"></path>
<path fill="#EFE4B8" d="M164.117 149.803C171.245 147.602 176.281 150.609 177.652 157.67C171.509 160.689 165.751 157.429 164.117 149.803Z"></path>
<path fill="#EFE4B8" d="M264.308 297.401C263.106 290.124 266.736 285.661 274.201 285.3C275.728 292.421 271.424 297.701 264.308 297.401Z"></path>
<path fill="#EFE4B8" d="M303.94 87.4005C296.86 91.4059 291.847 90.0708 288.65 83.4553C294.155 79.1372 299.829 80.5204 303.94 87.4005Z"></path>
<path fill="#EFE4B8" d="M374.176 149.141C381.16 147.109 386.232 150.657 386.857 157.994C379.934 160.039 374.765 156.43 374.176 149.141Z"></path>
<path fill="#EFE4B8" d="M264.32 283.677C262.673 290.785 257.48 293.588 250.521 291.122C251.783 283.929 257.721 280.73 264.32 283.677Z"></path>
<path fill="#EFE4B8" d="M228.475 282.306C234.666 287.069 235.182 292.554 230.11 298.015C223.991 293.576 223.378 288.175 228.475 282.306Z"></path>
<path fill="#EFE4B8" d="M364.283 118.818C357.563 122.535 352.25 120.899 349.305 114.32C353.861 110.146 361.506 111.685 364.283 118.818Z"></path>
<path fill="#EFE4B8" d="M213.244 145.436C206.393 148.973 200.791 146.916 198.411 140.132C202.702 136.548 210.299 137.786 213.244 145.436Z"></path>
<path fill="#EFE4B8" d="M215.649 175.038C211.381 169.325 212.752 163.792 219.387 159.918C223.979 165.199 222.356 171.754 215.649 175.038Z"></path>
<path fill="#EFE4B8" d="M318.641 159.305C312.234 155.985 310.96 151.246 314.638 144.342C321.069 145.304 323.197 153.231 318.641 159.305Z"></path>
<path fill="#EFE4B8" d="M185.886 216.283C182.785 223.211 177.364 225.027 171.185 221.383C173.144 214.683 179.251 212.494 185.886 216.283Z"></path>
<path fill="#EFE4B8" d="M283.938 274.379C277.543 273.657 272.903 268.196 275.571 260.991C282.736 261.881 285.921 266.849 283.938 274.379Z"></path>
<path fill="#EFE4B8" d="M352.659 108.089C355.52 100.848 360.965 98.6591 367.336 101.991C364.92 109.063 359.835 111.229 352.659 108.089Z"></path>
<path fill="#EFE4B8" d="M325.782 71.2349C329.111 77.6459 327.044 82.5534 319.856 85.6928C315.925 80.3763 318.317 74.3622 325.782 71.2349Z"></path>
<path fill="#EFE4B8" d="M230.699 237.969C236.24 243.55 236.072 249.276 230.386 253.834C224.869 248.71 224.929 243.514 230.699 237.969Z"></path>
<path fill="#EFE4B8" d="M234.064 178.214C226.972 176.638 224.135 171.298 226.756 164.478C233.896 165.56 236.973 171.346 234.064 178.214Z"></path>
<path fill="#EFE4B8" d="M183.049 233.856C180.152 226.843 184.287 221.443 190.514 220.288C193.928 226.122 190.286 232.761 183.049 233.856Z"></path>
<path fill="#EFE4B8" d="M345.555 183.025C338.126 180.475 335.818 175.639 338.667 168.916C345.447 170.022 348.548 176.193 345.555 183.025Z"></path>
<path fill="#EFE4B8" d="M223.691 282.173C217.524 277.759 217.007 271.36 222.297 266.549C228.247 270.915 228.764 275.967 223.691 282.173Z"></path>
<path fill="#EFE4B8" d="M376.327 246.642C369.199 244.356 366.855 239.112 369.957 232.4C376.868 233.832 379.633 239.99 376.327 246.642Z"></path>
<path fill="#EFE4B8" d="M211.802 230.308C205.792 225.617 205.371 220.433 210.372 214.683C216.442 218.171 217.091 224.354 211.802 230.308Z"></path>
<path fill="#EFE4B8" d="M286.041 105.948C282.327 112.467 277.302 113.598 270.787 109.568C272.59 103.206 279.298 101.534 286.041 105.948Z"></path>
<path fill="#EFE4B8" d="M215.3 113.189C222.753 114.031 225.951 118.481 224.496 125.758C217.272 126.264 213.065 119.023 215.3 113.189Z"></path>
<path fill="#EFE4B8" d="M264.597 91.9353C262.83 84.8266 266.7 79.7146 273.889 79.6665C275.764 86.4504 271.689 91.839 264.597 91.9353Z"></path>
<path fill="#EFE4B8" d="M319.975 112.936C316.958 120.707 312.606 122.823 305.683 119.997C307.762 112.768 312.703 110.242 319.975 112.936Z"></path>
<path fill="#EFE4B8" d="M296.536 76.7674C290.489 80.9292 284.984 79.582 281.306 73.0146C286.571 68.3958 293.074 70.0076 296.536 76.7674Z"></path>
<path fill="#EFE4B8" d="M357.107 138.003C351.649 143.2 346.372 143.067 341.468 137.811C346.264 131.171 354.63 132.988 357.107 138.003Z"></path>
<path fill="#EFE4B8" d="M239.088 161.422C239.99 153.472 244.486 149.923 251.361 151.499C251.061 158.92 246.553 162.649 239.088 161.422Z"></path>
<path fill="#EFE4B8" d="M239.907 293.071C235.976 285.77 240.063 280.165 245.532 278.493C249.751 284.074 246.386 291.134 239.907 293.071Z"></path>
<path fill="#EFE4B8" d="M306.669 153.099C299.865 149.286 298.651 144.054 302.918 137.811C309.289 140.59 310.744 146.279 306.669 153.099Z"></path>
<path fill="#EFE4B8" d="M171.101 244.405C176.931 239.63 182.448 240.604 186.691 246.979C181.691 251.706 175.981 250.828 171.101 244.405Z"></path>
<path fill="#EFE4B8" d="M285.08 179.356C288.626 185.887 286.631 191.336 279.839 194.127C275.764 188.666 277.868 182.531 285.08 179.356Z"></path>
<path fill="#EFE4B8" d="M287.388 168.543C292.196 162.577 299.264 162.962 303.243 168.074C298.206 173.823 293.013 174.028 287.388 168.543Z"></path>
<path fill="#EFE4B8" d="M188.867 160.52C181.366 159.089 178.758 155.216 179.948 147.506C186.908 147.385 190.935 153.099 188.867 160.52Z"></path>
<path fill="#EFE4B8" d="M373.07 225.773C365.93 226.807 361.471 222.634 361.747 215.152C368.863 214.202 373.852 218.869 373.07 225.773Z"></path>
<path fill="#EFE4B8" d="M210.54 151.391C216.442 146.856 221.755 147.818 226.035 154.193C220.265 158.98 214.182 157.886 210.54 151.391Z"></path>
<path fill="#EFE4B8" d="M315.432 77.0565C308.677 73.3758 307.186 67.9752 311.273 61.937C318.125 64.3186 319.579 71.9204 315.432 77.0565Z"></path>
<path fill="#EFE4B8" d="M397.989 107.404C404.672 103.603 410.033 105.275 413.147 111.986C407.437 116.148 402.088 114.608 397.989 107.404Z"></path>
<path fill="#EFE4B8" d="M245.135 248.915C237.478 246.269 235.074 241.289 238.091 234.758C245.207 236.586 247.768 241.602 245.135 248.915Z"></path>
<path fill="#EFE4B8" d="M290.79 146.074C287.34 139.579 289.059 134.599 295.862 131.4C300.154 136.873 297.762 143.777 290.79 146.074Z"></path>
<path fill="#EFE4B8" d="M228.679 152.774C231.54 145.845 236.769 143.969 243.368 147.361C241.433 154.217 235.687 156.406 228.679 152.774Z"></path>
<path fill="#EFE4B8" d="M381.112 219.53C386.485 224.414 386.401 231.113 380.619 235.299C375.27 230.572 375.402 224.823 381.112 219.53Z"></path>
<path fill="#EFE4B8" d="M253.718 128.309C259.284 133.529 259.236 139.05 253.743 143.849C248.045 140.024 247.961 133.06 253.718 128.309Z"></path>
<path fill="#EFE4B8" d="M352.178 233.447C354.979 226.663 360.244 224.943 366.915 228.503C365.304 234.986 358.837 237.248 352.178 233.447Z"></path>
<path fill="#EFE4B8" d="M398.386 102.797C399.588 95.0865 403.999 92.0073 411.091 93.6792C411.031 100.728 405.995 104.408 398.386 102.797Z"></path>
<path fill="#EFE4B8" d="M382.927 202.763C383.888 196.304 389.502 192.046 396.606 194.897C394.971 202.306 390.259 205.085 382.927 202.763Z"></path>
<path fill="#EFE4B8" d="M270.763 166.041C262.83 165.235 259.764 161.771 260.125 154.242C267.025 153.279 271.977 158.62 270.763 166.041Z"></path>
<path fill="#EFE4B8" d="M408.122 129.199C407.509 137.065 402.484 140.974 395.849 139.038C396.679 131.424 400.549 128.26 408.122 129.199Z"></path>
<path fill="#EFE4B8" d="M243.525 228.78C236.457 230.62 232.286 227.974 230.338 220.637C236.337 217.317 242.395 220.974 243.525 228.78Z"></path>
<path fill="#EFE4B8" d="M250.245 115.991C256.063 111.288 261.34 112.215 265.883 118.577C260.354 123.353 255.149 122.547 250.245 115.991Z"></path>
<path fill="#EFE4B8" d="M248.994 274.608C243.536 268.485 243.608 264.119 249.078 258.851C254.848 262.7 254.872 269.327 248.994 274.608Z"></path>
<path fill="#EFE4B8" d="M274.958 160.929C279.755 155.24 285.236 155.071 290.609 160.436C286.39 166.258 279.622 166.474 274.958 160.929Z"></path>
<path fill="#EFE4B8" d="M199.169 217.221C205.095 222.164 205.528 227.312 200.467 232.869C194.421 229.213 193.892 222.778 199.169 217.221Z"></path>
<path fill="#EFE4B8" d="M295.706 269.399C289.263 269.038 284.719 262.759 287.568 256.264C294.552 256.89 297.978 262.399 295.706 269.399Z"></path>
<path fill="#EFE4B8" d="M236.481 281.139C230.326 277.134 229.762 270.35 235.002 265.623C240.832 269.435 241.421 275.113 236.481 281.139Z"></path>
<path fill="#EFE4B8" d="M216.479 280.489C221.023 286.431 219.785 292.674 213.474 295.705C208.329 290.605 210.829 282.799 216.479 280.489Z"></path>
<path fill="#EFE4B8" d="M336.011 86.5585C333.715 93.7394 329.087 95.9285 321.935 93.4146C322.199 86.9314 328.594 83.7199 336.011 86.5585Z"></path>
<path fill="#EFE4B8" d="M282.159 94.7621C288.061 90.48 293.326 91.767 297.329 98.4908C291.799 103.037 285.404 101.462 282.159 94.7621Z"></path>
<path fill="#EFE4B8" d="M249.68 196.22C256.892 193.97 262.301 197.603 262.638 204.7C255.93 206.793 251.098 203.701 249.68 196.22Z"></path>
<path fill="#EFE4B8" d="M269.201 102.869C267.806 95.2909 271.893 90.1789 278.793 90.5999C279.887 98.0574 276.593 102.375 269.201 102.869Z"></path>
<path fill="#EFE4B8" d="M353.068 159.738C347.887 165.692 342.838 166.101 337.489 161.169C339.99 155.251 347.202 154.494 353.068 159.738Z"></path>
<path fill="#EFE4B8" d="M188.951 197.735C195.983 196.496 200.695 200.79 200.419 208.188C193.363 209.294 188.531 204.892 188.951 197.735Z"></path>
<path fill="#EFE4B8" d="M282.639 283.593C288.782 288.693 289.179 293.913 283.974 299.434C278.06 295.392 277.507 289.619 282.639 283.593Z"></path>
<path fill="#EFE4B8" d="M304.902 76.7314C312.691 77.0442 316.598 81.5548 315.383 88.5431C308.147 88.7476 304.276 84.4896 304.902 76.7314Z"></path>
<path fill="#EFE4B8" d="M332.886 62.3942C339.798 61.3718 344.281 65.8824 343.897 73.4721C336.66 74.1217 332.369 69.8035 332.886 62.3942Z"></path>
<path fill="#EFE4B8" d="M400.213 155.131C406.103 153.616 412.221 158.932 410.995 166.077C404.312 167.316 399.071 161.879 400.213 155.131Z"></path>
<path fill="#EFE4B8" d="M381.449 174.232C374.32 171.73 372.193 166.727 375.198 159.967C381.605 160.785 384.49 167.184 381.449 174.232Z"></path>
<path fill="#EFE4B8" d="M307.45 73.9411C300.117 75.4446 295.561 72.0647 294.888 64.8237C301.103 62.2978 306.668 66.231 307.45 73.9411Z"></path>
<path fill="#EFE4B8" d="M205.492 287.49C210.576 293.841 208.196 299.783 202.703 302.898C197.654 298.159 199.457 289.919 205.492 287.49Z"></path>
<path fill="#EFE4B8" d="M199.169 121.332C205.985 117.302 210.432 118.373 214.495 124.82C209.519 129.619 203.148 128.224 199.169 121.332Z"></path>
<path fill="#EFE4B8" d="M302.834 187.932C299.396 181.281 301.308 176.217 308.195 173.234C312.126 178.983 310.023 184.913 302.834 187.932Z"></path>
<path fill="#EFE4B8" d="M394.082 93.6433C394.671 86.1016 399.768 82.5533 406.836 84.5259C406.067 91.7308 401.775 94.8582 394.082 93.6433Z"></path>
<path fill="#EFE4B8" d="M372.013 59.6514C377.614 64.5468 377.747 70.1279 372.53 75.3482C366.664 71.3187 366.399 65.4249 372.013 59.6514Z"></path>
<path fill="#EFE4B8" d="M279.935 175.567C276.942 182.604 272.05 184.408 265.222 181.197C267.422 174.317 273.312 171.995 279.935 175.567Z"></path>
<path fill="#EFE4B8" d="M302.558 104.553C308.653 100.006 313.737 101.113 318.077 107.752C312.547 112.227 307.222 111.18 302.558 104.553Z"></path>
<path fill="#EFE4B8" d="M257.649 97.2519C251.626 101.678 246.205 100.548 242.274 94.2207C247.287 89.4696 253.682 90.6604 257.649 97.2519Z"></path>
<path fill="#EFE4B8" d="M308.495 280.97C312.402 287.213 310.743 292.698 304.12 295.969C299.805 290.34 301.463 284.458 308.495 280.97Z"></path>
<path fill="#EFE4B8" d="M195.935 271.24C202.751 274.632 204.277 279.72 200.407 286.239C193.639 283.569 191.764 277.278 195.935 271.24Z"></path>
<path fill="#EFE4B8" d="M202.378 183.049C209.122 179.862 214.123 182.015 216.731 189.051C211.31 192.9 205.263 190.458 202.378 183.049Z"></path>
<path fill="#EFE4B8" d="M289.311 108.63C295.417 104.565 300.61 105.852 304.348 112.359C299.564 117.194 292.412 115.414 289.311 108.63Z"></path>
<path fill="#EFE4B8" d="M211.166 264.901C215.89 270.59 214.844 276.496 208.437 280.201C203.689 275.029 204.759 269.063 211.166 264.901Z"></path>
<path fill="#EFE4B8" d="M354.678 252.391C351.673 245.655 353.789 240.579 360.653 238.042C364.523 243.959 361.662 250.839 354.678 252.391Z"></path>
<path fill="#EFE4B8" d="M402.977 80.9897C399.912 74.0975 402.545 68.2157 409.312 66.7964C412.558 73.2916 409.889 79.2576 402.977 80.9897Z"></path>
<path fill="#EFE4B8" d="M377.157 73.147C384.574 73.7845 388.385 78.9686 386.293 85.5962C378.888 85.1271 375.294 80.2436 377.157 73.147Z"></path>
<path fill="#EFE4B8" d="M186.824 188.209C188.603 180.27 192.606 177.432 199.614 178.911C199.626 185.996 194.373 189.893 186.824 188.209Z"></path>
<path fill="#EFE4B8" d="M369.512 93.0902C374.272 86.7754 378.96 86.0056 385.163 90.3719C383.384 95.8808 375.114 98.4428 369.512 93.0902Z"></path>
<path fill="#EFE4B8" d="M250.99 166.378C258.358 166.618 262.085 171.297 260.714 178.611C253.442 178.478 249.595 173.643 250.99 166.378Z"></path>
<path fill="#EFE4B8" d="M391.365 107.945C383.588 108.727 379.465 105.298 379.285 98.0936C386.004 96.2292 391.137 100.319 391.365 107.945Z"></path>
<path fill="#EFE4B8" d="M334.304 94.8101C336.6 101.907 334.268 106.08 326.803 108.558C323.125 103.591 327.139 95.7362 334.304 94.8101Z"></path>
<path fill="#EFE4B8" d="M185.417 279.214C192.257 282.426 193.784 287.442 190.141 294.093C183.614 292.157 181.511 285.758 185.417 279.214Z"></path>
<path fill="#EFE4B8" d="M225.073 130.522C221.407 137.51 217.044 138.966 210.312 135.718C212.055 128.934 218.883 126.48 225.073 130.522Z"></path>
<path fill="#EFE4B8" d="M366.483 86.5587C367.949 93.7275 363.923 98.7673 356.794 98.659C355.268 91.6225 359.343 86.5346 366.483 86.5587Z"></path>
<path fill="#EFE4B8" d="M248.261 177.636C240.76 176.806 237.202 171.839 239.15 164.935C246.783 165.861 250.112 170.492 248.261 177.636Z"></path>
<path fill="#EFE4B8" d="M325.12 122.463C323.317 129.716 318.16 132.302 311.032 129.764C312.823 122.559 317.319 120.165 325.12 122.463Z"></path>
<path fill="#EFE4B8" d="M366.747 155.757C361.362 150.019 361.567 144.342 367.096 140C372.626 144.727 372.529 150.765 366.747 155.757Z"></path>
<path fill="#EFE4B8" d="M199.77 258.418C192.209 257.179 189.024 252.476 190.911 245.644C197.943 245.872 201.79 251.297 199.77 258.418Z"></path>
<path fill="#EFE4B8" d="M208.1 255.903C201.669 250.84 200.9 246.088 205.359 240.279C211.875 243.911 213.005 250.13 208.1 255.903Z"></path>
<path fill="#EFE4B8" d="M243.874 215.874C251.122 213.865 255.293 216.439 257.096 223.8C252.192 227.589 245.4 223.608 243.874 215.874Z"></path>
<path fill="#EFE4B8" d="M287.568 211.869C295.009 210.365 298.939 212.915 300.682 220.204C294.684 223.44 288.397 219.567 287.568 211.869Z"></path>
<path fill="#EFE4B8" d="M316.958 136.295C322.8 133.481 329.339 136.415 330.758 143.548C325.036 146.904 318.977 143.801 316.958 136.295Z"></path>
<path fill="#EFE4B8" d="M182.713 293.732C185.862 300.552 183.951 305.484 177.087 308.226C173.084 302.453 175.669 295.801 182.713 293.732Z"></path>
<path fill="#EFE4B8" d="M365.714 159.582C372.049 163.972 372.818 169.361 368.154 175.291C361.891 171.081 360.99 165.68 365.714 159.582Z"></path>
<path fill="#EFE4B8" d="M199.926 238.054C195.418 243.767 189.889 244.068 184.215 238.92C188.194 232.966 194.373 232.629 199.926 238.054Z"></path>
<path fill="#EFE4B8" d="M276.089 230.38C269.009 232.521 264.501 229.67 262.806 222.213C268.877 219.314 274.25 222.549 276.089 230.38Z"></path>
<path fill="#EFE4B8" d="M215.661 200.153C215.168 192.78 218.618 189.135 226.311 188.919C228.21 196.497 221.19 201.597 215.661 200.153Z"></path>
<path fill="#EFE4B8" d="M349.979 64.9077C356.434 68.9612 357.6 74.7227 353.248 80.1715C346.805 77.0081 345.423 70.8496 349.979 64.9077Z"></path>
<path fill="#EFE4B8" d="M381.461 208.067C378.251 214.587 372.085 216.018 366.399 211.58C369.464 205.181 376.148 203.617 381.461 208.067Z"></path>
<path fill="#EFE4B8" d="M246.422 231.919C253.587 229.478 257.878 231.955 259.933 239.509C254.031 242.672 247.949 239.341 246.422 231.919Z"></path>
<path fill="#EFE4B8" d="M250.148 210.329C242.443 211.459 238.019 204.627 239.498 198.962C246.434 198.469 250.773 202.991 250.148 210.329Z"></path>
<path fill="#EFE4B8" d="M412.522 235.227C406.607 239.906 401.547 239.04 397.039 232.785C401.811 227.89 408.098 228.816 412.522 235.227Z"></path>
<path fill="#EFE4B8" d="M259.945 267.078C256.976 259.849 258.827 255.23 265.642 252.463C269.489 258.357 267.013 264.901 259.945 267.078Z"></path>
<path fill="#EFE4B8" d="M286.714 250.455C283.313 257.191 278.48 258.634 271.737 255.098C273.071 248.747 279.767 246.57 286.714 250.455Z"></path>
<path fill="#EFE4B8" d="M195.382 162.108C191.079 156.431 192.714 150.08 199.241 147.061C203.605 152.726 202.03 158.884 195.382 162.108Z"></path>
<path fill="#EFE4B8" d="M310.215 270.362C303.171 267.992 300.779 262.267 303.988 255.844C311.092 258.117 313.244 262.976 310.215 270.362Z"></path>
<path fill="#EFE4B8" d="M289.203 113.598C289.552 119.528 284.082 125.482 276.582 123.052C277.808 115.33 282.291 111.962 289.203 113.598Z"></path>
<path fill="#EFE4B8" d="M391.57 115.775C387.11 121.585 380.667 121.886 376.015 116.497C380.835 110.579 386.425 110.326 391.57 115.775Z"></path>
<path fill="#EFE4B8" d="M242.383 113.622C235.207 112.48 231.973 106.886 234.618 100.235C241.662 101.305 244.968 107.019 242.383 113.622Z"></path>
<path fill="#EFE4B8" d="M357.84 149.19C352.912 154.903 347.37 154.963 341.997 149.514C346.481 143.873 351.89 143.705 357.84 149.19Z"></path>
<path fill="#EFE4B8" d="M280.283 133.745C281.077 125.939 286.029 122.234 292.749 124.219C292.099 131.592 287.76 134.984 280.283 133.745Z"></path>
<path fill="#EFE4B8" d="M170.632 295.524C167.928 288.596 170.524 283.592 177.616 281.656C180.874 287.874 178.061 293.624 170.632 295.524Z"></path>
<path fill="#EFE4B8" d="M226.191 224.594C218.619 223.608 215.613 219.326 217.128 211.989C223.992 211.869 227.922 217.233 226.191 224.594Z"></path>
<path fill="#EFE4B8" d="M178.41 253.498C185.778 252.512 190.058 256.144 190.394 263.517C183.398 265.081 178.59 261.148 178.41 253.498Z"></path>
<path fill="#EFE4B8" d="M239.955 211.604C234.053 216.379 228.68 215.633 224.521 209.595C228.692 204.459 235.327 205.241 239.955 211.604Z"></path>
<path fill="#EFE4B8" d="M339.376 195.991C339.485 203.774 335.806 207.358 328.257 207.118C327.32 200.069 331.671 195.619 339.376 195.991Z"></path>
<path fill="#EFE4B8" d="M315.588 96.8666C309.542 101.257 304.193 100.126 300.25 93.6551C305.467 88.9039 311.79 90.227 315.588 96.8666Z"></path>
<path fill="#EFE4B8" d="M391.149 87.4489C387.915 80.7733 390.896 74.8193 397.303 73.2075C400.837 79.2818 398.289 85.3199 391.149 87.4489Z"></path>
<path fill="#EFE4B8" d="M410.839 116.316C410.442 123.858 406.367 127.142 398.722 126.312C398.542 119.155 403.374 115.09 410.839 116.316Z"></path>
<path fill="#EFE4B8" d="M390.151 222.237C384.045 217.642 383.408 211.857 388.276 206.745C394.371 210.113 395.212 216.475 390.151 222.237Z"></path>
<path fill="#EFE4B8" d="M338.127 181.112C339.16 188.257 334.556 192.816 327.14 192.202C326.527 185.118 330.145 181.365 338.127 181.112Z"></path>
<path fill="#EFE4B8" d="M374.428 123.088C382.037 121.729 386.461 124.929 387.086 132.037C380.378 134.275 375.137 130.666 374.428 123.088Z"></path>
<path fill="#EFE4B8" d="M397.328 200.791C404.348 204.038 406.139 209.102 402.761 215.573C395.825 213.288 393.746 207.827 397.328 200.791Z"></path>
<path fill="#EFE4B8" d="M208.376 154.891C212.98 160.52 210.492 168.098 204.313 169.95C200.275 163.755 201.741 158.331 208.376 154.891Z"></path>
<path fill="#EFE4B8" d="M334.196 116.184C331.9 108.955 334.641 104.228 341.829 102.616C344.786 109.003 341.841 114.356 334.196 116.184Z"></path>
<path fill="#EFE4B8" d="M247.011 122.138C249.151 129.403 246.326 134.058 239.09 135.514C236.217 129.319 239.618 123.413 247.011 122.138Z"></path>
<path fill="#EFE4B8" d="M374.669 99.6572C379.177 105.25 378.011 110.807 371.484 114.945C366.086 108.979 369.248 101.738 374.669 99.6572Z"></path>
<path fill="#EFE4B8" d="M233.054 139.784C229.929 146.808 225.049 148.576 218.305 145.317C220.084 138.641 225.926 136.38 233.054 139.784Z"></path>
<path fill="#EFE4B8" d="M275.271 279.648C268.443 282.378 264.14 280.273 261.459 272.888C267.157 269.111 273.66 272.298 275.271 279.648Z"></path>
<path fill="#EFE4B8" d="M338.763 88.375C346.408 88.6276 349.726 92.1519 349.474 99.7416C342.418 100.716 337.405 95.3995 338.763 88.375Z"></path>
<path fill="#EFE4B8" d="M222.91 254.99C215.301 253.666 212.235 248.795 214.339 241.71C221.683 242.841 224.785 247.532 222.91 254.99Z"></path>
<path fill="#EFE4B8" d="M330.614 225.22C326.479 219.037 328.126 213.059 334.737 210.172C339.005 216.102 337.478 221.659 330.614 225.22Z"></path>
<path fill="#EFE4B8" d="M216.526 230.921C222.092 226.158 227.513 226.928 232.033 233.134C227.285 238.27 219.195 236.791 216.526 230.921Z"></path>
<path fill="#EFE4B8" d="M372.89 137.269C379.874 135.032 385.283 138.737 385.752 145.846C379.14 148.035 374.717 145.148 372.89 137.269Z"></path>
<path fill="#EFE4B8" d="M416.921 187.03C412.918 193.345 407.497 194.548 401.763 190.374C405.201 183.65 412.257 182.099 416.921 187.03Z"></path>
<path fill="#EFE4B8" d="M367.949 179.465C365.869 186.946 360.893 189.496 353.933 186.862C355.7 179.693 360.689 176.999 367.949 179.465Z"></path>
<path fill="#EFE4B8" d="M226.972 114.476C219.604 111.385 217.813 107.199 220.637 100.006C227.621 101.894 230.242 107.692 226.972 114.476Z"></path>
<path fill="#EFE4B8" d="M259.993 295.103C261.892 301.815 258.25 306.578 250.737 307.18C247.96 302.092 253.057 294.382 259.993 295.103Z"></path>
<path fill="#EFE4B8" d="M202.03 191.745C209.458 193.02 212.259 197.471 210.552 204.928C203.749 204.736 200.311 199.527 202.03 191.745Z"></path>
<path fill="#EFE4B8" d="M245.652 108.293C249.583 101.991 254.728 101.125 261.147 105.683C258.971 111.385 251.098 113.442 245.652 108.293Z"></path>
<path fill="#EFE4B8" d="M368.334 120.767C372.781 126.997 371.7 132.326 365.389 136.127C360.532 131.436 361.674 125.085 368.334 120.767Z"></path>
<path fill="#EFE4B8" d="M188.518 212.013C182.328 213.168 176.45 208.753 177.279 201.248C184.311 200.249 188.735 204.483 188.518 212.013Z"></path>
<path fill="#EFE4B8" d="M511.331 192.094C511.018 192.238 510.706 192.431 510.381 192.491C503.481 193.862 498 197.543 494.406 203.473C487.855 214.286 477.914 219.951 466.121 222.946C461.71 224.053 457.202 224.738 452.743 225.641C445.121 227.192 438.462 230.115 433.63 236.767C429.423 242.564 423.136 245.836 416.645 248.65C410.346 251.369 403.771 253.702 397.929 257.239C387.507 263.529 381.893 273.224 382.422 285.493C383.264 305.063 388.697 323.923 390.957 343.288C392.688 358.107 391.967 373.215 388.805 387.805C385.548 402.84 383.3 416.324 389.863 431.094C374.946 436.351 337.742 427.281 337.742 427.281C337.213 388.033 352.623 391.666 361.855 353.873C370.065 320.242 356.23 296.751 353.068 291.976C349.282 287.345 344.389 283.653 338.247 281.247C333.294 279.298 327.609 279.082 322.223 278.384C315.889 277.578 309.385 277.675 303.183 276.339C294.083 274.379 286.378 276.652 279.202 282.005C278.469 282.558 277.711 283.099 276.942 283.592C276.81 283.665 276.521 283.496 275.824 283.304C281.894 277.157 288.229 272.238 297.064 271.877C299.264 271.781 301.488 271.973 303.7 271.949C309.974 271.877 316.249 271.672 322.524 271.709C328.426 271.733 334.328 271.997 340.519 272.154C338.836 270.855 337.201 269.339 335.362 268.184C324.808 261.545 314.434 254.556 303.531 248.542C293.638 243.081 282.664 243.25 272.254 246.87C262.613 250.226 253.298 254.629 244.102 259.115C236.421 262.868 228.643 264.456 220.409 262.218C209.855 259.356 200.888 262.916 192.413 268.593C188.29 271.36 184.492 274.607 180.285 277.843C180.393 277.29 180.321 276.796 180.537 276.556C187.509 269.074 194.986 262.146 205.023 259.151C209.182 257.912 213.954 256.794 218.041 257.624C228.812 259.825 237.695 256.168 246.506 250.876C255.786 245.295 265.006 239.473 275.776 237.067C279.178 236.298 282.652 235.84 286.366 235.191C283.926 231.775 281.39 228.648 279.322 225.232C274.021 216.463 269.213 207.382 263.683 198.758C258.298 190.338 254.067 189.003 244.799 192.936C239.618 195.137 234.69 198.252 230.17 201.668C218.342 210.617 204.891 214.707 190.226 215.705C190.875 215.465 191.488 215.104 192.161 214.984C205.912 212.47 218.005 206.672 228.367 197.206C232.033 193.85 236.096 190.927 240.219 187.619C220.806 185.069 202.583 179.873 189.408 164.14C189.516 163.804 189.637 163.479 189.745 163.13C190.526 163.347 191.512 163.322 192.041 163.804C206.369 176.794 223.559 181.473 242.371 180.427C257.12 179.609 266.833 186.934 274.562 198.288C279.611 205.698 284.467 213.252 289.696 220.541C296.247 229.658 306.032 234.457 316.069 239.726C314.927 235.215 313.941 231.222 312.871 227.252C312.739 226.747 312.234 226.278 311.79 225.953C302.113 218.893 298.242 208.609 297.846 197.386C297.317 182.965 289.431 175.11 277.062 170.215C276.75 170.094 276.485 169.878 276.209 169.709C276.329 169.421 276.449 169.144 276.569 168.855C280.115 170.371 283.758 171.682 287.183 173.426C295.634 177.72 300.094 184.829 301.428 194.127C302.474 201.38 304.721 208.2 309.193 214.13C309.686 214.779 310.203 215.405 310.744 216.006C310.96 216.247 311.309 216.367 312.439 217.064C312.895 204.242 313.749 191.962 313.605 179.705C313.52 172.777 308.604 168.146 302.93 164.609C298.278 161.711 293.903 158.03 288.842 156.214C282.712 154.013 276.04 152.629 269.525 152.245C251.458 151.186 237.707 142.875 227.021 128.513C240.964 144.739 258.827 150.296 279.562 147.866C269.718 131.388 267.818 111.77 259.825 94.3167C260.185 94.1122 260.534 93.9198 260.894 93.7273C261.628 94.858 262.541 95.9044 263.034 97.1313C266.941 106.742 270.679 116.425 274.67 125.999C277.615 133.084 279.947 140.806 286.174 145.713C291.415 149.851 297.473 153.062 303.411 156.202C309.542 159.449 315.324 162.974 319.146 168.639C322.151 165.079 325.277 161.783 327.933 158.138C334.496 149.141 334.929 139.194 330.914 129.235C327.705 121.26 323.269 113.778 319.891 105.864C317.571 100.391 316.85 94.5212 319.266 88.6274C318.461 95.8563 320.252 102.472 323.81 108.63C326.19 112.756 328.799 116.761 331.275 120.851C332.633 123.112 333.919 125.422 335.278 127.779C340.495 118.409 346.024 109.328 350.628 99.7895C352.575 95.7601 352.587 90.7804 353.549 85.897C354.547 93.9318 353.104 101.305 350.027 108.366C348.837 111.12 347.094 113.658 345.471 116.196C340.41 124.135 338.223 132.879 338.643 142.177C339.028 150.729 336.985 158.319 331.347 164.826C326.551 170.371 324.399 176.866 324.339 184.131C324.231 194.74 323.846 205.349 324.099 215.946C324.315 225.749 327.849 234.517 333.883 242.3C334.965 236.731 335.194 231.005 337.261 226.037C340.434 218.412 341.841 210.617 343.043 202.546C344.906 189.953 349.991 178.634 359.066 169.397C359.427 169.024 359.848 168.723 360.533 168.543C352.082 179.753 348.428 192.407 348.26 206.095C354.27 202.005 359.884 197.422 366.146 194.091C374.236 189.785 379.766 183.361 384.346 175.772C386.774 171.766 388.096 167.484 387.856 162.805C387.231 150.128 388.853 137.738 391.907 125.434C394.84 113.598 393.385 102.027 388.649 90.8526C388.421 90.3233 388.24 89.7941 388.06 89.2528C388.024 89.1807 388.144 89.0604 388.541 88.2665C389.983 91.1894 391.414 93.6311 392.435 96.2412C396.979 107.897 396.811 119.816 395.152 132.073C393.974 140.661 393.758 149.514 394.311 158.174C394.816 166.185 394.659 173.751 390.44 180.944C402.425 179.512 412.474 171.911 416.597 161.23C420.395 151.463 423.737 141.491 427.908 131.881C431.923 122.619 438.114 114.909 447.225 110.001C448.656 109.232 450.278 108.799 452.226 108.943C451.901 109.328 451.649 109.845 451.24 110.05C440.782 115.125 434.748 123.99 431.033 134.479C427.295 145.004 424.302 155.793 420.72 167.316C428.99 163.743 434.748 158.764 439.352 152.04C447.946 139.507 460.376 133.781 475.293 132.915C475.473 132.903 475.666 133.132 475.521 133.035C470.581 134.731 465.268 136.151 460.315 138.376C452.334 141.96 445.999 147.83 441.96 155.504C437.717 163.539 431.334 168.916 423.641 173.137C413.952 178.454 404.252 183.71 394.587 189.063C382.675 195.666 370.546 201.945 360.461 211.375C345.123 225.725 346.096 244.609 353.91 260.534C354.835 262.411 356.975 263.662 358.477 265.261C361.723 268.702 364.908 272.202 367.853 275.389C371.015 269.88 374.453 264.504 377.253 258.802C378.66 255.952 378.888 252.524 379.718 249.372C383.035 236.61 390.476 226.807 401.15 219.254C404.564 216.836 407.81 214.154 411.019 211.471C415.839 207.442 419.47 202.546 420.996 195.738C421.597 199.443 420.239 204.278 416.861 208.176C412.75 212.915 408.399 217.51 403.711 221.647C395.453 228.936 389.01 237.224 386.762 248.266C386.69 248.578 386.714 248.891 386.726 248.675C396.462 244.982 406.271 241.109 416.188 237.536C423.953 234.734 429.038 229.405 432.199 221.948C434.339 216.908 436.419 211.82 438.787 206.889C444.989 193.946 455.543 185.996 468.754 181.184C472.372 179.861 475.966 178.502 479.596 177.215C488.263 174.124 493.023 167.568 495.62 159.101C495.848 158.331 496.053 157.573 496.281 156.803C496.582 156.803 496.87 156.791 497.171 156.779C497.195 157.814 497.411 158.872 497.219 159.87C494.923 171.742 487.121 178.526 476.375 182.808C465.893 186.982 455.627 191.853 449.605 202.005C445.963 208.14 443.511 214.984 440.518 221.515C440.806 221.852 441.095 222.188 441.395 222.525C453.32 219.891 465.352 217.654 477.12 214.442C483.371 212.734 488.131 208.103 491.93 202.703C495.836 197.158 501.173 193.561 507.773 191.926C508.855 191.661 509.972 191.529 511.307 192.07L511.331 192.094Z"></path>
<path fill="#EFE4B8" d="M167.939 482.515C188.963 456.726 221.31 433.307 254.379 426.932C259.319 426.115 264.284 425.609 269.248 425.706C264.392 426.74 259.632 427.895 254.98 429.374C222.284 440.091 194.372 460.972 167.939 482.515Z"></path>
<path fill="#EFE4B8" d="M160.294 472.952C181.318 447.164 213.665 423.745 246.734 417.37C251.674 416.552 256.651 416.047 261.603 416.143C256.747 417.177 251.987 418.332 247.335 419.812C214.639 430.529 186.727 451.41 160.294 472.952Z"></path>
<path fill="#EFE4B8" d="M267.253 353.982C267.253 353.982 288.626 349.591 317.98 354.944C319.759 355.269 320.997 356.917 320.805 358.709L320.252 363.725C320.107 365.072 318.917 366.058 317.571 365.95C307.762 365.144 271.412 366.708 267.518 364.639C264.885 363.231 267.265 353.97 267.265 353.97L267.253 353.982Z"></path>
<path fill="#EFE4B8" d="M302.221 357.854L293.53 358.083L268.54 358.72L269.405 363.291C269.525 363.941 269.645 364.566 269.778 365.192C271.929 376.727 272.386 382.572 270.547 394.841C270.655 397.138 271.509 399.255 272.915 400.939C274.309 402.599 276.257 403.814 278.517 404.295C285.164 405.715 295.285 407.026 305.491 404.993C309.121 404.259 311.898 401.3 312.463 397.632C312.222 393.843 312.174 390.631 312.306 387.684C312.487 383.402 313.064 379.674 314.073 375.56C314.35 374.405 314.65 373.214 315.023 371.988C315.54 370.123 316.141 368.126 316.826 365.937C316.922 365.661 316.994 365.384 317.091 365.095L319.507 357.421L302.221 357.866V357.854ZM277.074 397.066C271.665 383.029 279.094 374.862 279.094 374.862C284.202 395.611 277.074 397.066 277.074 397.066ZM284.094 397.355C278.697 383.318 286.138 375.151 286.138 375.151C291.258 395.9 284.094 397.355 284.094 397.355ZM290.826 397.644C285.428 383.607 292.869 375.44 292.869 375.44C297.978 396.188 290.826 397.644 290.826 397.644ZM297.581 397.932C292.172 383.895 299.601 375.728 299.601 375.728C304.733 396.477 297.581 397.932 297.581 397.932ZM304.601 398.233C299.204 384.196 306.621 376.029 306.621 376.029C311.741 396.778 304.601 398.233 304.601 398.233Z"></path>
<path fill="#EFE4B8" d="M308.327 311.847C308.327 311.847 308.796 336.541 287.952 366.876L298.218 370.316C298.218 370.316 313.76 320.038 319.554 315.311L308.315 311.847H308.327Z"></path>
<path fill="#EFE4B8" d="M295.189 344.359C295.189 344.359 304 344.179 309.025 348.016C309.025 348.016 303.639 349.399 295.189 344.359Z"></path>
<path fill="#EFE4B8" d="M296.055 341.557C296.055 341.557 304.866 341.376 309.89 345.213C309.89 345.213 304.493 346.596 296.055 341.557Z"></path>
<path fill="#EFE4B8" d="M302.714 322.805C302.714 322.805 311.525 322.624 316.55 326.461C316.55 326.461 311.164 327.844 302.714 322.805Z"></path>
<path fill="#EFE4B8" d="M303.591 320.002C303.591 320.002 312.402 319.821 317.427 323.658C317.427 323.658 312.042 325.042 303.591 320.002Z"></path>
<path fill="#EFE4B8" d="M308.231 312.604C311.477 312.568 314.71 312.773 317.932 313.122C321.682 313.603 325.42 313.988 329.003 315.491C329.64 315.768 330.83 316.477 331.202 317.548L331.383 318.125C331.491 318.486 331.791 319.484 331.9 319.857C336.876 336.781 341.047 353.909 342.706 371.542C335.578 354.871 330.962 337.31 327.199 319.629C327.175 319.521 327.055 318.919 327.031 318.847C327.055 319.051 327.272 319.388 327.32 319.424C327.416 319.521 327.392 319.46 327.32 319.412C325.721 318.33 323.81 317.788 321.898 317.079C317.355 315.527 312.775 314.18 308.207 312.592L308.231 312.604Z"></path>
<path fill="#EFE4B8" d="M467.78 459.517C468.525 457.099 468.417 455.993 465.46 456.871C462.214 457.833 458.885 458.519 455.459 458.085C453.62 457.857 452.141 457.159 452.201 454.97C452.261 452.589 453.752 451.783 455.879 451.951C459.654 452.252 463.513 452.192 466.902 454.357C467.696 454.862 468.741 455.596 469.403 454.285C470.232 452.649 471.025 450.808 470.532 449.028C470.196 447.813 468.802 448.716 467.924 448.92C464.077 449.81 460.243 450.796 456.24 450.171C454.161 449.846 452.874 448.86 453.079 446.514C453.283 444.169 454.762 443.351 456.829 443.459C460.207 443.628 463.585 443.832 466.818 444.999C471.482 446.671 471.963 446.274 472.179 441.438C472.3 438.888 471.53 438.516 469.282 439.574C465.676 441.27 461.806 442.052 457.827 442.184C455.771 442.256 454.136 441.607 453.944 439.273C453.752 436.892 455.363 436.086 457.37 435.857C461.301 435.412 465.267 434.931 469.09 436.254C471.795 437.193 472.275 436.254 471.747 433.969C471.518 432.983 471.302 431.996 471.134 430.998C470.701 428.556 469.727 428.328 467.672 429.639C464.342 431.744 460.856 433.68 456.865 434.246C454.99 434.51 453.091 434.558 452.526 432.093C451.949 429.579 453.283 428.52 455.507 427.907C459.966 426.692 464.426 425.621 469.439 426.74C469.006 423.998 467.744 422.145 466.674 420.233C465.34 417.875 463.933 417.406 461.866 419.655C459.377 422.362 456.529 424.707 453.163 426.271C451.215 427.173 449.1 428.063 447.693 425.405C446.311 422.795 447.994 421.532 449.977 420.413C453.764 418.284 457.839 416.901 462.094 416.167C461.902 414.555 460.628 414.243 459.882 413.449C457.274 410.694 455.122 410.37 452.694 413.978C450.831 416.745 448.295 419.126 445.289 420.798C443.246 421.941 441.01 423.059 439.423 420.329C438.005 417.875 439.808 416.456 441.647 415.205C445.193 412.787 449.052 410.983 453.475 409.696C449.244 406.994 445.638 407.339 442.657 410.73C440.613 413.064 438.534 415.373 435.793 416.913C434.182 417.815 432.319 418.765 430.913 416.709C429.458 414.58 430.66 413.1 432.463 411.789C435.793 409.347 439.411 407.411 444.256 405.594C442.152 405.041 441.19 404.885 440.289 404.536C436.647 403.153 434.002 403.586 432.127 407.603C430.901 410.213 428.677 412.402 426.165 414.062C424.506 415.157 422.787 415.662 421.368 413.641C420.022 411.717 421.284 410.526 422.583 409.347C425.095 407.05 428.088 405.378 431.43 403.357C423.977 401.553 424.169 401.613 420.791 407.519C419.914 409.047 418.88 410.478 417.714 411.789C416.536 413.1 415.082 414.519 413.207 412.835C411.211 411.031 412.678 409.516 414.024 408.217C416.115 406.196 418.303 404.271 420.539 402.227C417.654 400.675 415.526 401.048 413.495 403.634C411.584 406.051 409.12 408.048 406.331 409.48C404.564 410.394 402.532 411.44 401.186 409.01C399.9 406.689 401.414 405.342 403.386 404.392C405.946 403.165 408.531 401.962 411.355 400.639C408.182 398.414 405.573 398.149 402.592 400.35C400.465 401.914 397.904 402.936 395.224 403.405C393.577 403.694 392.05 403.634 391.582 401.589C391.125 399.604 392.279 398.835 393.974 398.317C396.907 397.415 399.948 397.451 403.398 397.283C400.825 394.047 398.349 392.532 394.478 394.035C392.279 394.889 389.754 394.805 387.374 394.324C385.703 393.987 384.465 393.181 384.826 391.149C385.139 389.368 386.329 389.044 387.939 389.104C391.053 389.2 393.95 390.21 397.027 391.269C396.642 388.129 394.983 386.879 392.183 386.903C390.62 386.903 389.081 386.71 387.699 385.892C386.869 385.399 386.557 384.689 386.869 383.751C387.194 382.765 388.084 382.236 388.817 382.801C391.437 384.81 395.693 383.511 397.52 387.3C397.7 386.217 397.652 385.267 397.628 384.329C397.58 382.837 397.688 381.225 399.611 381.261C401.486 381.297 401.655 382.921 401.571 384.389C401.474 386.073 401.426 387.805 400.982 389.417C400.14 392.484 401.39 394.083 404.275 395.154C403.782 392.64 403.314 390.451 402.941 388.25C402.713 386.891 402.941 385.555 404.612 385.387C406.331 385.219 406.667 386.722 406.8 387.937C406.968 389.465 406.872 391.028 406.751 392.568C406.367 397.331 406.932 397.957 412.341 398.173C410.261 394.937 409.252 391.473 408.723 387.829C408.47 386.049 408.915 384.726 410.814 384.305C412.894 383.835 413.567 385.291 413.988 386.867C414.733 389.633 414.721 392.52 414.192 395.25C413.495 398.774 414.913 399.953 418.099 399.893C419.289 399.869 420.455 400.723 422.006 399.941C419.794 396.85 418.027 393.711 416.873 390.258C416.26 388.43 416.825 387.288 418.532 386.554C420.214 385.82 421.2 386.71 422.03 387.985C423.304 389.946 423.881 392.315 423.761 394.444C423.436 400.098 426.333 401.757 431.273 401.505C431.634 401.481 431.995 401.348 432.608 401.204C430.781 398.678 429.05 396.357 427.415 393.963C426.381 392.448 426.585 390.992 428.148 389.934C429.807 388.815 431.009 389.561 432.091 390.956C434.062 393.482 434.735 396.537 435.637 399.496C436.058 400.879 436.346 402.19 438.089 402.539C446.491 404.235 454.437 407.05 461.385 412.354C459.522 407.892 457.55 403.971 451.72 403.995C449.172 403.995 446.515 402.78 444.087 401.721C441.912 400.759 441.034 398.931 442.26 396.501C443.522 393.975 445.373 394.516 447.249 395.479C449.677 396.718 452.033 398.101 454.557 399.496C454.629 394.961 452.478 393.013 448.415 392.965C446.395 392.941 444.556 392.243 442.777 391.353C440.95 390.439 439.712 389.224 440.613 387.023C441.623 384.581 443.402 385.098 445.157 386.037C447.465 387.275 449.725 388.599 452.165 389.994C452.802 387.6 452.333 386.181 449.893 385.411C446.552 384.365 443.138 383.402 440.325 381.093C438.57 379.65 437.752 378.098 439.267 376.029C440.77 373.984 442.308 374.778 444.003 375.861C446.912 377.725 449.22 380.251 451.78 382.777C453.211 376.234 453.199 376.282 447.525 374.129C445.422 373.335 443.306 372.493 441.611 370.941C440.205 369.654 439.628 368.247 440.95 366.503C442.26 364.771 443.474 365.541 444.953 366.37C448.21 368.175 450.374 371.134 452.91 373.804C454.413 371.519 454.064 370.003 451.841 368.752C449.016 367.164 446.311 365.336 444.376 362.654C443.33 361.21 442.645 359.671 444.352 358.155C446.155 356.555 447.393 357.686 448.643 358.985C451.059 361.499 452.658 364.566 454.341 368.054C456.048 365.384 456.324 363.375 454.281 361.271C453.019 359.971 451.961 358.444 450.975 356.916C450.134 355.617 450.025 354.114 451.528 353.212C453.319 352.141 454.076 353.621 454.665 354.92C455.615 357.025 456.42 359.178 457.418 361.619C458.584 360.248 459.414 359.154 460.375 358.167C461.337 357.181 462.226 355.918 463.837 356.098C464.162 356.134 464.618 356.952 464.618 357.422C464.642 359.214 463.056 359.731 461.83 360.453C461.181 360.837 460.519 361.186 459.81 361.427C457.779 362.125 457.154 363.339 457.526 365.697C458.524 364.891 459.101 364.326 459.786 363.905C460.772 363.291 461.721 361.704 463.02 362.979C465.087 364.999 460.784 367.02 459.389 367.609C458.26 368.091 457.13 368.283 456.264 369.221C455.759 369.774 455.435 370.448 455.242 371.17C455.062 371.819 455.327 373.527 455.014 373.984C455.976 372.589 457.262 371.519 458.512 370.412C459.726 369.329 460.531 367.333 462.455 367.525C463.717 367.657 464.703 368.728 464.642 369.991C464.57 371.543 463.272 372.469 462.022 373.13C460.291 374.044 458.524 374.983 456.661 375.548C454.112 376.318 453.547 377.821 454.136 380.708C456.829 378.711 459.137 376.943 461.914 375.933C463.513 375.343 464.931 374.814 465.688 376.907C466.361 378.76 465.316 379.854 463.765 380.552C461.433 381.598 458.969 382.115 456.408 382.2C454.93 382.248 453.475 382.272 453.62 384.377C453.86 387.985 454.052 391.654 455.11 395.142C456.252 398.931 457.887 403.225 460.075 406.545C460.375 407.002 462.587 409.648 462.443 410.033C464.041 405.618 465.556 401.866 468.176 398.69C469.222 397.427 470.316 396.309 472.059 397.524C473.562 398.582 473.718 399.989 473.009 401.613C472.071 403.754 470.328 405.21 468.669 406.701C464.759 410.205 464.402 414.11 467.6 418.416C467.648 418.489 467.864 418.441 468.225 418.465C468.886 416.468 469.403 414.315 470.292 412.342C471.278 410.177 472.624 408.181 473.778 406.1C474.764 404.319 475.99 403.032 478.129 404.344C480.149 405.582 480.449 407.351 479.416 409.431C477.997 412.258 475.785 414.411 473.526 416.528C470.256 419.591 469.651 423.16 471.711 427.233C471.711 427.233 471.711 427.233 471.711 427.245C472.167 428.147 472.492 429.11 472.564 430.12C472.672 431.527 473.117 432.923 473.946 434.522C476.278 430.048 479.464 426.884 482.938 423.986C484.548 422.638 486.207 420.834 488.335 423.132C490.607 425.585 489.116 427.546 487.217 429.254C484.657 431.563 481.543 432.874 478.334 434.017C472.84 435.978 472.828 436.05 474.379 442.365C477.889 438.684 482.289 436.82 486.796 435.184C488.539 434.546 490.487 433.801 491.424 436.278C492.29 438.576 491.605 440.416 489.261 441.487C485.859 443.038 482.253 443.483 478.55 443.531C473.033 443.616 471.41 445.913 472.949 451.686C475.882 449.293 479.32 448.018 482.818 446.923C484.801 446.298 487.157 445.312 488.107 448.283C489.02 451.133 487.013 452.384 484.765 453.25C481.567 454.477 478.141 454.958 474.8 454.778C470.581 454.561 469.547 456.642 469.583 460.623C473.682 458.338 477.793 457.063 482.192 456.883C484.2 456.798 486.688 455.848 487.109 459.144C487.518 462.343 485.402 463.366 482.793 463.691C479.103 464.148 475.413 463.715 471.915 462.668C466.542 461.044 466.83 465.567 465.808 468.153L464.462 467.804C465.64 466.457 466.446 463.907 467.78 459.589V459.517Z"></path>
<path fill="#EFE4B8" d="M-18.3071 420.016C10.8427 413.352 45.7384 417.274 69.7194 433.283C71.3662 434.45 72.989 435.617 74.5757 436.843C71.7268 435.893 69.0102 434.762 66.2334 433.704C39.3074 424.25 10.6023 421.339 -18.3071 420.016Z"></path>
<path fill="#EFE4B8" d="M7.66895 427.606C28.2962 424.406 52.4095 428.869 68.3247 441.198C69.4065 442.088 70.4884 442.99 71.5341 443.916C69.5988 443.11 67.7597 442.196 65.8725 441.318C47.5892 433.391 27.7312 429.951 7.66895 427.594V427.606Z"></path>
<path fill="#EFE4B8" d="M19.0049 433.115C36.0019 432.117 55.2469 437.602 67.2073 448.848C68.0247 449.654 68.8301 450.472 69.5994 451.302C68.0848 450.496 66.6664 449.606 65.2119 448.752C50.9796 440.909 35.1124 436.567 19.0049 433.103V433.115Z"></path>
<path fill="#EFE4B8" d="M67.1831 419.655C64.779 411.524 62.2667 403.802 53.107 400.314C44.4522 397.018 36.6749 392.111 32.7803 381.778C38.3217 383.919 42.9016 386.481 47.4213 389.248C51.9891 392.038 54.7899 396.585 59.0211 399.989C55.7516 392.375 52.482 384.749 49.2004 377.136C49.5249 376.991 49.8374 376.859 50.162 376.715C52.8786 383.041 55.5953 389.368 58.3119 395.683C58.6124 386.65 60.1751 378.242 64.19 369.341C66.8465 375.271 67.8923 380.431 66.6302 385.88C65.8007 389.489 65.1276 393.217 63.637 396.561C60.6199 403.345 63.5769 408.673 67.3634 414.17C65.6324 402.299 68.8179 391.449 73.566 379.289C75.934 385.928 77.629 391.124 77.1481 396.814C76.4029 405.51 72.6284 413.473 70.9335 421.941C70.4888 424.19 68.9742 423.889 67.2913 422.975C62.1826 420.197 57.0618 417.43 51.8569 414.844C43.9353 410.899 38.3939 404.8 34.367 395.731C47.9622 401.096 59.3697 407.735 67.1831 419.655Z"></path>
<path fill="#EFE4B8" d="M50.0901 378.134C45.2338 376.354 43.7673 372.589 46.0272 368.006C50.6792 368.981 52.3981 373.154 50.0901 378.134Z"></path>
</g>
</g>
<defs>
<clipPath id="clip0_1852_7617">
<rect transform="translate(-64.3896 57.7173)" fill="white" height="584.702" width="572.872"></rect>
</clipPath>
</defs>
</svg>
